<svg width="197" height="110" viewBox="0 0 197 110" fill="none" xmlns="http://www.w3.org/2000/svg">
<path d="M33.9742 103.031H2.384C1.37689 103.031 0.559998 102.223 0.559998 101.227V71.0726C0.559998 70.0787 1.37333 69.2719 2.37866 69.2693L34.2213 69.1849C35.2347 69.1823 36.0551 69.9961 36.0498 70.9979L35.7973 101.237C35.792 102.229 34.9778 103.031 33.9742 103.031Z" fill="#D4D9E2"/>
<path d="M32.4258 71.4936L4.17953 71.6658C3.1582 71.672 2.33509 72.4945 2.34042 73.5042L2.53775 98.8661C2.5422 99.86 3.34931 100.668 4.35464 100.687L31.7991 101.182C32.824 101.2 33.6693 100.392 33.6835 99.3775L34.288 73.3487C34.3022 72.324 33.4622 71.4865 32.4258 71.4936Z" fill="#3E3D44"/>
<path d="M31.2774 73.8452V74.0377C31.2774 74.34 31.0294 74.5851 30.7236 74.5851H8.96003C8.65425 74.5851 8.40625 74.34 8.40625 74.0377V73.8452C8.40625 73.5429 8.65425 73.2977 8.96003 73.2977H30.7236C31.0294 73.2977 31.2774 73.5429 31.2774 73.8452Z" fill="url(#paint0_linear_4456_21752)"/>
<path d="M28.8489 76.2671C28.8329 76.5536 28.5964 76.7795 28.3058 76.7847L9.27199 77.1275C8.96266 77.1327 8.70844 76.8867 8.70844 76.58V76.5352C8.70844 76.2364 8.9511 75.993 9.25332 75.9877L28.2871 75.6898C28.608 75.6845 28.8667 75.9499 28.8489 76.2671Z" fill="url(#paint1_linear_4456_21752)"/>
<path d="M30.792 99.7465C30.7858 99.7465 30.7796 99.7465 30.7733 99.7465L5.02934 99.4407C4.60623 99.4354 4.21067 99.2676 3.91556 98.9671C3.62045 98.6665 3.46312 98.2702 3.47112 97.8519L4.13334 79.9422C4.14134 79.53 4.31289 79.1416 4.61689 78.8525C4.92089 78.5634 5.32623 78.4104 5.74134 78.4175L31.44 78.9122C32.3084 78.9289 33.0018 79.6407 32.9867 80.4993C32.9867 80.5011 32.9867 80.502 32.9867 80.5037L32.3689 98.2192C32.3538 99.0637 31.648 99.7465 30.792 99.7465ZM5.71023 78.936C5.43645 78.936 5.17867 79.0388 4.98134 79.2268C4.77867 79.4193 4.664 79.6785 4.65867 79.9571L3.99645 97.8668C3.99112 98.1419 4.09689 98.4055 4.29334 98.6059C4.48978 98.8062 4.75378 98.9187 5.03645 98.9222L30.7805 99.228C30.7849 99.228 30.7893 99.228 30.7929 99.228C31.3644 99.228 31.8347 98.772 31.8453 98.206L32.4631 80.4879C32.472 79.9158 32.0098 79.4421 31.4311 79.4307L5.73245 78.936C5.72356 78.936 5.71645 78.936 5.71023 78.936Z" fill="url(#paint2_linear_4456_21752)"/>
<path d="M32.3902 82.3914H4.35377C4.20889 82.3914 4.09155 82.2754 4.09155 82.1322C4.09155 81.9889 4.20889 81.8729 4.35377 81.8729H32.3902C32.5351 81.8729 32.6524 81.9889 32.6524 82.1322C32.6533 82.2754 32.536 82.3914 32.3902 82.3914Z" fill="url(#paint3_linear_4456_21752)"/>
<path d="M167.802 94.1047C167.802 95.618 166.651 96.8562 165.244 96.8562H26.9004C25.4933 96.8562 24.3422 95.618 24.3422 94.1047L23.1911 8.51341C23.1911 7.00014 24.8471 4.04566 27.8827 4.26711L163.087 0.500624C164.852 0.451412 166.56 1.18256 167.81 2.52447C169.06 3.86638 169.744 5.70041 169.702 7.59947L167.802 94.1047Z" fill="#BBBAC8"/>
<path d="M165.276 91.4649C165.276 92.8982 164.187 94.0705 162.855 94.0705H30.2364C28.9048 94.0705 27.816 92.8982 27.816 91.4649L26.7297 13.7642C26.8577 9.08817 30.6657 7.40792 32.9733 7.50722C32.9733 7.50722 138.648 4.45519 162.555 3.76447C163.795 3.72844 164.994 4.24341 165.873 5.18634C166.751 6.12928 167.235 7.4211 167.204 8.75598L165.276 91.4649Z" fill="#3E3D44"/>
<path d="M36.7351 91.326C34.5973 91.326 32.8178 89.6634 32.7591 87.5991L30.68 15.1255C30.6196 13.0287 32.3405 11.2632 34.5165 11.1885L159.98 6.92022C161.083 6.88155 162.163 7.2937 162.941 8.0477C163.702 8.78501 164.113 9.7631 164.099 10.8036L163.026 86.1438C162.996 88.2389 161.269 89.8989 159.095 89.9244L36.7831 91.326C36.7662 91.326 36.7502 91.326 36.7351 91.326ZM34.5209 11.3625L34.5271 11.5365C32.5449 11.6042 30.9769 13.2088 31.0311 15.1149L33.1102 87.5886C33.1645 89.4656 34.7858 90.9772 36.7342 90.9772C36.7485 90.9772 36.7627 90.9772 36.7778 90.9772L159.09 89.5755C161.071 89.5526 162.644 88.0429 162.671 86.1386L163.744 10.7983C163.757 9.85449 163.384 8.96604 162.692 8.2964C161.982 7.60831 160.997 7.23395 159.99 7.26822L34.5271 11.5374L34.5209 11.3625Z" fill="#7D97F4"/>
<path d="M178.357 103.962H16.5902C16.2231 103.962 15.9227 103.665 15.9227 103.302V97.1005C15.9227 96.7376 16.2231 96.4406 16.5902 96.4406H178.357C178.724 96.4406 179.025 96.7376 179.025 97.1005V103.302C179.025 103.665 178.724 103.962 178.357 103.962Z" fill="#BBBAC8"/>
<path d="M36.7733 13.2633L126.689 11.1806C128.151 11.1463 129.362 12.0066 129.362 13.0796V14.0674C129.362 15.0982 128.241 15.9401 126.836 15.9664L36.9591 17.6353C35.5529 17.6616 34.3751 16.8602 34.3058 15.8302L34.2667 15.2564C34.1956 14.1948 35.3245 13.2976 36.7733 13.2633Z" fill="white"/>
<path d="M126.676 13.5367C126.868 12.0313 125.81 10.6604 124.314 10.475C122.818 10.2896 121.451 11.3599 121.26 12.8662C121.161 13.6527 121.403 14.4023 121.868 14.9656L119.084 17.0835C118.908 17.2232 118.891 17.4816 119.045 17.6441L119.071 17.6705C119.208 17.8146 119.437 17.8208 119.582 17.6846L122.112 15.2222C122.516 15.5983 123.036 15.8549 123.624 15.9279C125.119 16.1124 126.486 15.042 126.676 13.5367ZM123.716 15.1985C122.62 15.0631 121.845 14.0587 121.985 12.9558C122.124 11.8529 123.126 11.069 124.221 11.2044C125.316 11.3397 126.092 12.3442 125.952 13.447C125.812 14.5499 124.812 15.3338 123.716 15.1985Z" fill="url(#paint4_linear_4456_21752)"/>
<path d="M35.08 51.5345L36.5796 84.7149C36.6302 85.8336 38.3378 86.7212 40.408 86.7063L84.4293 86.3785C86.4987 86.3627 88.16 85.4505 88.1547 84.3327L88.0018 50.8403C87.9964 49.6944 86.2462 48.7752 84.1253 48.805L38.7582 49.4439C36.6747 49.4738 35.0293 50.4088 35.08 51.5345Z" fill="white"/>
<path d="M96.6187 20.037L124.215 19.7048C127.04 19.6705 129.381 20.5774 129.405 21.7146L129.874 44.2599C129.898 45.3962 127.596 46.318 124.772 46.3039L96.0435 46.1625C94.4275 46.1546 93.1164 45.6334 93.0782 44.9831L91.7307 22.1118C91.6658 20.9975 93.8489 20.0704 96.6187 20.037Z" fill="white"/>
<path d="M42.0062 19.5212L81.2765 19.1793C85.296 19.1442 88.6285 20.0792 88.6622 21.2506L89.3289 44.4858C89.3627 45.6563 86.088 46.6072 82.0694 46.5931L41.1867 46.4472C38.8862 46.4393 37.0214 45.9015 36.9671 45.2319L35.0498 21.6601C34.9574 20.5107 38.064 19.5554 42.0062 19.5212Z" fill="white"/>
<path d="M96.5529 49.03L124.149 48.5431C126.974 48.493 129.316 49.8244 129.34 51.4941L129.808 84.5963C129.832 86.2642 127.531 87.6184 124.707 87.5982L95.9778 87.3899C94.3618 87.3785 93.0506 86.6131 93.0124 85.6587L91.6649 52.0776C91.6 50.4395 93.7831 49.0783 96.5529 49.03Z" fill="white"/>
<path d="M137.066 10.1744L158.595 9.83165C160.798 9.79649 162.626 10.7333 162.644 11.9073L163.009 35.1943C163.028 36.3675 161.232 37.3201 159.029 37.3061L136.616 37.1593C135.355 37.1514 134.332 36.6127 134.302 35.9413L133.252 12.3169C133.201 11.1665 134.904 10.2095 137.066 10.1744Z" fill="white"/>
<path d="M137.595 40.4337L159.124 40.1648C161.327 40.1376 163.155 40.8722 163.172 41.7932L163.538 60.0649C163.556 60.9859 161.761 61.7329 159.558 61.7215L137.145 61.6063C135.884 61.6002 134.861 61.1775 134.831 60.6502L133.78 42.1139C133.73 41.2114 135.434 40.4609 137.595 40.4337Z" fill="white"/>
<path d="M138.621 64.5125L160.15 64.226C162.354 64.197 164.181 64.9791 164.199 65.9607L164.564 85.4206C164.583 86.4013 162.788 87.1975 160.585 87.1852L138.172 87.0631C136.91 87.056 135.888 86.6061 135.858 86.0454L134.807 66.3043C134.756 65.3412 136.46 64.5406 138.621 64.5125Z" fill="white"/>
<path d="M118.502 49.2778H94.9591C94.208 49.2778 93.6 48.8331 93.6 48.2848V31.6818C93.6 31.1343 94.2062 30.6906 94.9555 30.6888L118.687 30.6422C119.442 30.6405 120.054 31.0886 120.05 31.6405L119.861 48.29C119.858 48.8366 119.251 49.2778 118.502 49.2778Z" fill="#D4D9E2"/>
<path d="M117.349 31.913L96.2977 32.0079C95.5368 32.0114 94.9235 32.464 94.9271 33.0203L95.0737 46.9842C95.0773 47.5317 95.6782 47.9772 96.4275 47.9869L116.882 48.2593C117.645 48.2699 118.276 47.8243 118.286 47.2663L118.737 32.935C118.748 32.3708 118.122 31.9095 117.349 31.913Z" fill="#3E3D44"/>
<path d="M116.493 33.2083V33.3146C116.493 33.4807 116.308 33.616 116.081 33.616H99.8604C99.6329 33.616 99.448 33.4807 99.448 33.3146V33.2083C99.448 33.0422 99.6329 32.9069 99.8604 32.9069H116.081C116.308 32.9069 116.493 33.0422 116.493 33.2083Z" fill="#D4D9E2"/>
<path d="M114.684 34.5414C114.672 34.6996 114.495 34.8235 114.279 34.8261L100.093 35.0151C99.8622 35.0186 99.6729 34.8824 99.6729 34.7136V34.689C99.6729 34.5247 99.8533 34.3903 100.079 34.3876L114.265 34.2233C114.504 34.2215 114.696 34.3674 114.684 34.5414Z" fill="#D4D9E2"/>
<path d="M116.132 47.5202C116.127 47.5202 116.122 47.5202 116.117 47.5202L96.9306 47.3524C96.5626 47.3488 96.2249 47.2179 96.0053 46.9929C95.8471 46.8312 95.7635 46.63 95.7689 46.4244L96.2631 36.5617C96.2755 36.0714 96.8009 35.6759 97.4382 35.6759C97.4453 35.6759 97.4524 35.6759 97.4604 35.6759L116.613 35.9483C116.979 35.9536 117.314 36.0854 117.532 36.3086C117.688 36.4694 117.772 36.6707 117.767 36.8746C117.767 36.8763 117.767 36.8772 117.767 36.879L117.307 46.6335C117.294 47.1309 116.78 47.5202 116.132 47.5202ZM97.4382 36.0617C97.0186 36.0617 96.6613 36.2946 96.6542 36.5758L96.16 46.4384C96.1564 46.5623 96.2275 46.6625 96.2871 46.7231C96.4329 46.8717 96.6746 46.9622 96.9342 46.9648L116.121 47.1327C116.124 47.1327 116.127 47.1327 116.131 47.1327C116.55 47.1327 116.908 46.8989 116.916 46.6186L117.376 36.8623C117.379 36.7348 117.308 36.6364 117.25 36.5758C117.106 36.4281 116.866 36.3376 116.608 36.3341L97.4551 36.0617C97.4489 36.0617 97.4435 36.0617 97.4382 36.0617Z" fill="#D4D9E2"/>
<path d="M117.323 37.9643H96.4276C96.3191 37.9643 96.232 37.8773 96.232 37.771C96.232 37.6646 96.32 37.5776 96.4276 37.5776H117.323C117.431 37.5776 117.518 37.6646 117.518 37.771C117.518 37.8773 117.431 37.9643 117.323 37.9643Z" fill="#D4D9E2"/>
<path d="M77.1769 52.9651L48.4515 52.7103C47.888 52.705 47.4302 53.1567 47.4329 53.7138L47.5582 75.506C47.5618 76.0667 48.0302 76.5149 48.5964 76.4982C53.7902 76.3453 76.8489 75.6695 77.8666 75.7116C78.8729 75.753 78.3262 58.2475 78.176 53.9283C78.1582 53.394 77.7173 52.9695 77.1769 52.9651Z" fill="#3E3D44"/>
<path d="M48.568 75.659C48.4791 75.659 48.408 75.5887 48.408 75.5017L48.2827 53.7095C48.2827 53.6664 48.2987 53.6278 48.3289 53.597C48.3502 53.5759 48.3875 53.5504 48.4435 53.5504L77.1689 53.8053C77.2551 53.8061 77.3244 53.8729 77.3271 53.9573C77.6987 64.6346 77.7058 72.831 77.3458 74.8382L77.3395 74.8733L77.3031 74.8742C73.496 74.9269 52.7031 75.5377 48.5715 75.659H48.568ZM48.4427 53.6374C48.4222 53.6374 48.4044 53.6444 48.3911 53.6585C48.3769 53.6726 48.3698 53.6893 48.3698 53.7095L48.4951 75.5017C48.4951 75.5403 48.5271 75.5728 48.5653 75.5728L48.5698 75.6159L48.568 75.572C52.6853 75.4507 73.3618 74.8435 77.2649 74.7872C77.6178 72.7265 77.608 64.5704 77.2391 53.9599C77.2373 53.9221 77.2062 53.8923 77.168 53.8914L48.4427 53.6374Z" fill="white"/>
<path d="M73.7102 72.8749H54.88C54.2942 72.8749 53.9297 72.2448 54.2266 71.7456L61.6817 59.2168C61.9928 58.6939 62.7697 58.7343 63.0249 59.2853L66.624 67.0828C66.8373 67.5459 67.4462 67.6681 67.8257 67.3245L69.2817 66.0045C69.6204 65.6978 70.1537 65.7567 70.416 66.1293L74.3324 71.6982C74.6817 72.1947 74.3217 72.8749 73.7102 72.8749Z" fill="url(#paint5_linear_4456_21752)"/>
<path d="M55.136 61.5139C56.6308 61.5139 57.8427 60.3159 57.8427 58.838C57.8427 57.3602 56.6308 56.1621 55.136 56.1621C53.6411 56.1621 52.4293 57.3602 52.4293 58.838C52.4293 60.3159 53.6411 61.5139 55.136 61.5139Z" fill="url(#paint6_linear_4456_21752)"/>
<path d="M33.0889 29.2185C33.0649 29.2405 33.0329 29.2546 32.9982 29.2572C32.912 29.2642 32.8364 29.2018 32.8293 29.1166C32.8115 28.9101 32.7973 28.7018 32.7866 28.4953C32.7822 28.41 32.8489 28.338 32.9351 28.3336C33.0213 28.3292 33.0942 28.3951 33.0986 28.4803C33.1084 28.6825 33.1227 28.8872 33.1404 29.0902C33.144 29.1403 33.1244 29.1869 33.0889 29.2185Z" fill="#4267B3"/>
<path d="M59.2157 14.8073C59.1615 14.8556 59.0789 14.8609 59.0184 14.8161C58.6797 14.5674 58.3277 14.3283 57.9704 14.106C57.8975 14.0603 57.8753 13.9654 57.9215 13.8933C57.9669 13.8204 58.0637 13.7993 58.1366 13.845C58.5011 14.0717 58.8602 14.3152 59.2051 14.5683C59.2744 14.6192 59.2886 14.7159 59.2371 14.7844C59.23 14.7932 59.2237 14.8003 59.2157 14.8073ZM56.3269 13.1077C56.2815 13.1481 56.2149 13.1596 56.1571 13.1332C55.7749 12.9583 55.3802 12.7966 54.9837 12.6507C54.9029 12.6209 54.862 12.5321 54.8913 12.4521C54.9206 12.3722 55.0113 12.3317 55.0922 12.3607C55.4966 12.5093 55.8993 12.6745 56.2877 12.852C56.366 12.888 56.3997 12.9794 56.3642 13.0567C56.3544 13.0778 56.342 13.0945 56.3269 13.1077ZM53.1464 12.0277C53.11 12.0602 53.0584 12.0751 53.006 12.0637C52.5944 11.9688 52.1749 11.8879 51.7589 11.8256C51.6735 11.8124 51.6149 11.7342 51.6282 11.6498C51.6415 11.5654 51.7206 11.5074 51.806 11.5206C52.23 11.5848 52.6575 11.6665 53.0771 11.7632C53.1606 11.7825 53.2131 11.8651 53.1935 11.9486C53.1864 11.9802 53.1695 12.0075 53.1464 12.0277ZM33.0789 26.5435C33.0477 26.5707 33.006 26.5866 32.9615 26.583C32.8753 26.576 32.8113 26.5022 32.8184 26.417C32.8522 25.9943 32.9037 25.5663 32.9713 25.1462C32.9846 25.0619 33.0646 25.0047 33.15 25.0179C33.2353 25.0311 33.2931 25.1102 33.2797 25.1946C33.2131 25.6067 33.1624 26.0268 33.1295 26.4416C33.1269 26.482 33.1073 26.518 33.0789 26.5435ZM49.8122 11.6059C49.7837 11.6313 49.7455 11.6463 49.7037 11.6454C49.2824 11.6349 48.8557 11.6419 48.4344 11.6647C48.3482 11.6691 48.2744 11.6041 48.27 11.5189C48.2655 11.4336 48.3313 11.3607 48.4175 11.3563C48.8469 11.3334 49.2824 11.3264 49.7117 11.3369C49.798 11.3387 49.8664 11.4099 49.8637 11.4951C49.8629 11.5391 49.8433 11.5786 49.8122 11.6059ZM33.6877 23.2735C33.6486 23.3078 33.5935 23.3227 33.5393 23.3069C33.4566 23.2832 33.4095 23.1971 33.4335 23.1153C33.5544 22.7058 33.6922 22.2972 33.8433 21.9009C33.8735 21.8209 33.9633 21.7805 34.0442 21.8112C34.1251 21.8411 34.166 21.9299 34.1349 22.0098C33.9864 22.3991 33.8513 22.7999 33.7322 23.2015C33.7242 23.2313 33.7082 23.2551 33.6877 23.2735ZM46.462 11.8686C46.4415 11.8871 46.4149 11.9003 46.3855 11.9055C45.9722 11.9811 45.5553 12.0734 45.1464 12.1815C45.0629 12.2034 44.9775 12.1542 44.9553 12.0725C44.9331 11.9899 44.9829 11.9055 45.0655 11.8836C45.4824 11.7737 45.9073 11.6788 46.3286 11.6023C46.4131 11.5874 46.4949 11.6419 46.51 11.7263C46.5215 11.7807 46.5011 11.8335 46.462 11.8686ZM34.9517 20.1934C34.9046 20.2356 34.8335 20.2461 34.774 20.2153C34.6975 20.1749 34.6691 20.0818 34.7091 20.0062C34.9109 19.6309 35.1304 19.2583 35.3615 18.8998C35.4077 18.8277 35.5037 18.8066 35.5766 18.8523C35.6495 18.898 35.6709 18.9938 35.6246 19.065C35.398 19.4165 35.1829 19.7812 34.9846 20.1503C34.9766 20.1679 34.9651 20.182 34.9517 20.1934ZM43.2371 12.8036C43.2237 12.8151 43.2086 12.8247 43.1917 12.8318C42.8015 12.9891 42.4122 13.1639 42.0353 13.3511C41.958 13.3898 41.8646 13.359 41.8255 13.2826C41.7873 13.2061 41.8175 13.1139 41.8949 13.0752C42.2789 12.8845 42.6753 12.7061 43.0735 12.5453C43.1535 12.5128 43.2442 12.5506 43.2771 12.6296C43.3029 12.692 43.2842 12.7615 43.2371 12.8036ZM40.2709 14.367C40.2655 14.3723 40.2593 14.3767 40.2531 14.3811C39.9037 14.6131 39.558 14.8626 39.2273 15.1219C39.1597 15.1746 39.062 15.1632 39.0077 15.0964C38.9544 15.0296 38.9695 14.933 39.0335 14.8793C39.3713 14.6148 39.7233 14.3609 40.0789 14.1245C40.1509 14.077 40.2477 14.0955 40.2957 14.1666C40.3393 14.2308 40.3277 14.3169 40.2709 14.367ZM36.8273 17.4349C36.7704 17.4858 36.6833 17.4885 36.6229 17.4384C36.5571 17.3839 36.5482 17.2863 36.6033 17.2213C36.8789 16.8953 37.1704 16.5754 37.4709 16.2713C37.534 16.2116 37.63 16.209 37.6913 16.2687C37.7526 16.3285 37.7544 16.426 37.694 16.4866C37.3989 16.7846 37.1126 17.0983 36.8424 17.419C36.838 17.4252 36.8326 17.4305 36.8273 17.4349Z" fill="#4267B3"/>
<path d="M61.2497 16.5816C61.1875 16.6369 61.0915 16.6343 61.0329 16.5737C60.8915 16.4278 60.7449 16.2819 60.5973 16.1413C60.5351 16.0824 60.5333 15.9849 60.5937 15.9234C60.6551 15.8645 60.7529 15.8601 60.8142 15.9199C60.9644 16.0631 61.1137 16.2116 61.2586 16.361C61.3182 16.4225 61.3164 16.5201 61.2542 16.5789C61.2515 16.5798 61.2506 16.5807 61.2497 16.5816Z" fill="#4267B3"/>
<path d="M65.8133 28.3942C65.784 28.4206 65.7449 28.4355 65.7031 28.4338C65.6169 28.4303 65.5493 28.3591 65.5529 28.2738C65.5609 28.07 65.5644 27.8643 65.5635 27.6631C65.5635 27.5778 65.6338 27.5093 65.7191 27.5084C65.8053 27.5084 65.8755 27.577 65.8755 27.6622C65.8755 27.8678 65.872 28.077 65.864 28.2853C65.8631 28.3283 65.8435 28.367 65.8133 28.3942Z" fill="#4267B3"/>
<path d="M60.4205 39.8378L60.3156 39.9309C60.2507 39.9872 60.152 39.981 60.0951 39.9178C60.0382 39.8545 60.0445 39.7578 60.1076 39.7007L60.1085 39.6998L60.2116 39.6084C60.4854 39.3641 60.7538 39.1075 61.0107 38.8448C61.072 38.785 61.1698 38.7815 61.2311 38.8412C61.2934 38.9001 61.2951 38.9986 61.2347 39.0592C60.9742 39.3272 60.6996 39.5891 60.4205 39.8378ZM58.7014 41.1779C58.696 41.1823 58.6907 41.1867 58.6845 41.1911C58.336 41.4275 57.9734 41.6534 57.6071 41.8625C57.5325 41.9047 57.4374 41.8801 57.3938 41.8063C57.3502 41.7325 57.3769 41.6384 57.4507 41.5954C57.8107 41.3897 58.1662 41.1683 58.5085 40.9363C58.5796 40.8879 58.6765 40.9064 58.7254 40.9767C58.7698 41.04 58.7582 41.127 58.7014 41.1779ZM62.5574 37.5239C62.5031 37.5723 62.4205 37.5776 62.3591 37.5327C62.2898 37.4818 62.2756 37.3851 62.328 37.3165C62.5769 36.9879 62.816 36.6452 63.0374 36.2989C63.0836 36.2269 63.1796 36.2058 63.2525 36.2515C63.3254 36.2972 63.3467 36.3921 63.3005 36.4641C63.0747 36.8174 62.8311 37.1663 62.5769 37.5011C62.5716 37.5099 62.5645 37.5169 62.5574 37.5239ZM55.7991 42.7466C55.7867 42.758 55.7716 42.7677 55.7556 42.7738C55.3654 42.9373 54.9645 43.0867 54.5645 43.2194C54.4827 43.2466 54.3947 43.2027 54.3671 43.1218C54.3396 43.041 54.384 42.9531 54.4658 42.9267C54.8587 42.7967 55.2516 42.6499 55.6347 42.49C55.7138 42.4566 55.8054 42.4935 55.8391 42.5717C55.8649 42.6341 55.8471 42.7044 55.7991 42.7466ZM64.2605 34.7197C64.2151 34.7602 64.1485 34.7725 64.0898 34.7452C64.0116 34.7092 63.9787 34.6169 64.0151 34.5405C64.1911 34.1705 64.3547 33.7873 64.5022 33.4024C64.5325 33.3225 64.6231 33.2829 64.7031 33.3128C64.784 33.3427 64.824 33.4323 64.7938 33.5114C64.6436 33.9042 64.4765 34.2944 64.2969 34.6714C64.288 34.6899 64.2747 34.7057 64.2605 34.7197ZM52.6374 43.7106C52.6169 43.7282 52.592 43.7414 52.5636 43.7475C52.1494 43.8292 51.7262 43.8969 51.3058 43.947C51.2205 43.9575 51.1422 43.8969 51.1325 43.8125C51.1218 43.7282 51.1831 43.6509 51.2685 43.6412C51.6809 43.592 52.096 43.5261 52.5022 43.4452C52.5867 43.4285 52.6694 43.483 52.6862 43.5665C52.6978 43.621 52.6774 43.6746 52.6374 43.7106ZM65.3582 31.6334C65.3209 31.6668 65.2685 31.6818 65.2169 31.6686C65.1334 31.6484 65.0818 31.5649 65.1022 31.4823C65.2 31.0833 65.2836 30.6755 65.3511 30.2713C65.3654 30.1869 65.4454 30.1307 65.5307 30.1439C65.616 30.1579 65.6729 30.237 65.6596 30.3214C65.5911 30.7336 65.5058 31.1492 65.4062 31.5552C65.3974 31.5869 65.3814 31.6132 65.3582 31.6334ZM49.3458 44.0243C49.3182 44.0489 49.2809 44.0639 49.24 44.0639C48.8178 44.0621 48.3902 44.0428 47.9671 44.0085C47.8809 44.0015 47.8178 43.9268 47.8249 43.8424C47.832 43.7572 47.9076 43.6939 47.9929 43.7018C48.408 43.7361 48.8276 43.7546 49.2418 43.7563C49.328 43.7563 49.3974 43.8257 49.3974 43.911C49.3974 43.9558 49.3778 43.9962 49.3458 44.0243ZM46.0578 43.6755C46.0222 43.7071 45.9716 43.7229 45.9209 43.7115C45.5956 43.6438 45.2667 43.5647 44.944 43.4777C44.8569 43.454 44.7707 43.4303 44.6845 43.4048C44.6018 43.3811 44.5538 43.2949 44.5787 43.2132C44.6027 43.1315 44.6898 43.0849 44.7725 43.1086C44.8569 43.1332 44.9422 43.157 45.0267 43.1798C45.3431 43.2659 45.6658 43.3433 45.9849 43.4092C46.0694 43.4268 46.1227 43.5085 46.1058 43.592C46.0987 43.6254 46.0809 43.6544 46.0578 43.6755ZM42.904 42.6851C42.8605 42.7246 42.7956 42.7369 42.7378 42.7123C42.3494 42.5462 41.9627 42.3634 41.5885 42.1683C41.512 42.1288 41.4827 42.0348 41.5236 41.9601C41.5636 41.8845 41.6578 41.8555 41.7342 41.895C42.1014 42.0866 42.4809 42.2659 42.8622 42.4285C42.9414 42.4619 42.9778 42.5532 42.9431 42.6315C42.9334 42.6525 42.92 42.671 42.904 42.6851ZM40.0151 41.0901C39.9627 41.1375 39.8818 41.1437 39.8214 41.1015C39.4756 40.8616 39.1334 40.605 38.8071 40.3387C38.7405 40.2842 38.7307 40.1875 38.7858 40.1216C38.8409 40.0575 38.9387 40.0461 39.0054 40.1005C39.3262 40.3615 39.6614 40.6138 40.0009 40.8484C40.0711 40.8976 40.0889 40.9934 40.0391 41.0628C40.032 41.0734 40.024 41.0822 40.0151 41.0901Z" fill="#4267B3"/>
<path d="M37.5084 38.9467C37.4453 39.0029 37.3485 38.9994 37.2907 38.9379C37.1476 38.7885 37.0053 38.6339 36.8676 38.4774C36.8107 38.4133 36.8249 38.3157 36.8827 38.2595C36.9476 38.2032 37.0462 38.2103 37.1031 38.2744C37.2391 38.4282 37.3787 38.5802 37.5182 38.727C37.5778 38.7894 37.5742 38.8869 37.512 38.9449C37.5102 38.9449 37.5093 38.9458 37.5084 38.9467Z" fill="url(#paint7_linear_4456_21752)"/>
<path d="M38.8756 34.6529C38.9147 34.7258 38.9965 34.7672 39.08 34.754L41.4462 34.391C42.1805 35.225 43.0542 35.95 44.0471 36.5247L44.1245 38.8895C44.1271 38.9722 44.1831 39.0442 44.2631 39.0688L47.008 39.9072C47.088 39.9318 47.1751 39.9028 47.2249 39.836L48.6382 37.9264C49.7867 38.0055 50.9209 37.8939 52.0036 37.6144L53.7511 39.2331C53.8125 39.2903 53.9031 39.3017 53.9778 39.263L56.5182 37.9369C56.5929 37.8983 56.6338 37.8174 56.6204 37.7348L56.2533 35.3955C57.0969 34.6696 57.8302 33.8058 58.4116 32.8241L60.8036 32.7477C60.8871 32.7451 60.96 32.6897 60.9849 32.6106L61.8329 29.8969C61.8578 29.8178 61.8285 29.7317 61.7609 29.6825L59.8293 28.2852C59.9093 27.1498 59.7965 26.0285 59.5138 24.9581L61.1511 23.2304C61.2089 23.1698 61.2204 23.0802 61.1813 23.0063L59.84 20.4948C59.8009 20.4209 59.7191 20.3805 59.6356 20.3937L57.2693 20.7566C56.5351 19.9227 55.6613 19.1977 54.6685 18.6229L54.5911 16.2581C54.5885 16.1755 54.5325 16.1035 54.4525 16.0788L51.7076 15.2405C51.6276 15.2159 51.5405 15.2449 51.4907 15.3117L50.0773 17.2213C48.9289 17.1422 47.7938 17.2538 46.712 17.5332L44.9644 15.9145C44.9031 15.8574 44.8125 15.846 44.7378 15.8846L42.1973 17.2107C42.1236 17.2494 42.0818 17.3302 42.0951 17.4128L42.4622 19.7522C41.6187 20.4781 40.8853 21.3419 40.304 22.3235L37.912 22.4C37.8285 22.4026 37.7556 22.458 37.7307 22.5371L36.8827 25.2508C36.8578 25.3298 36.8871 25.416 36.9547 25.4652L38.8862 26.8625C38.8062 27.9978 38.9191 29.1192 39.2018 30.1895L37.5644 31.9172C37.5067 31.9779 37.4951 32.0675 37.5342 32.1413L38.8756 34.6529Z" fill="#174389"/>
<path d="M51.2231 29.6192C51.2222 29.6201 51.2222 29.6201 51.2213 29.621C50.6685 30.1131 49.9547 30.3627 49.2125 30.324C48.4693 30.2854 47.7867 29.9637 47.2889 29.4171C46.7911 28.8705 46.5387 28.1648 46.5769 27.4311C46.6569 25.9151 47.9698 24.7464 49.5031 24.8254C50.2462 24.8641 50.9289 25.1857 51.4267 25.7324C51.9245 26.279 52.1769 26.9846 52.1387 27.7184C52.0996 28.4522 51.7751 29.1271 51.2231 29.6192ZM47.8062 25.8747C47.3476 26.2842 47.0773 26.8449 47.0445 27.4557C47.0125 28.0664 47.2222 28.6534 47.6365 29.1078C48.0507 29.5621 48.6187 29.8301 49.2365 29.8627C49.8542 29.8943 50.448 29.6869 50.9076 29.2774C50.9085 29.2765 50.9085 29.2765 50.9093 29.2756C51.368 28.8661 51.6382 28.3054 51.6711 27.6947C51.7031 27.0839 51.4933 26.4969 51.0791 26.0426C50.6649 25.5882 50.0969 25.3202 49.4791 25.2877C48.8613 25.2561 48.2676 25.4634 47.808 25.873C47.8071 25.8738 47.8062 25.8738 47.8062 25.8747Z" fill="#4267B3"/>
<path d="M54.2169 32.7934C52.4018 34.4121 49.7947 35.0747 47.2942 34.311C46.8062 34.1616 46.3342 33.9622 45.8925 33.7161L46.1218 33.3127C46.5351 33.5421 46.976 33.7293 47.4329 33.869C50.2053 34.7153 53.1191 33.6871 54.768 31.5147C54.7716 31.5103 54.7742 31.5068 54.7769 31.5024C54.7805 31.498 54.7831 31.4945 54.7867 31.4901C55.2285 30.9031 55.5778 30.2343 55.808 29.497C56.336 27.8071 56.1671 26.0153 55.3316 24.451C55.0667 23.9554 54.7449 23.5011 54.3751 23.0959C53.5769 22.2215 52.5529 21.573 51.3858 21.2162C47.8569 20.1388 44.0996 22.1003 43.0098 25.5882C42.6516 26.735 42.6142 27.9539 42.9013 29.1139L42.4471 29.2237C42.1396 27.9829 42.1796 26.6788 42.5627 25.452C43.7289 21.7198 47.7485 19.6212 51.5236 20.7742C52.7725 21.1556 53.8685 21.8498 54.7218 22.7849C55.1182 23.219 55.4622 23.7041 55.7449 24.2349C56.6382 25.9081 56.8196 27.8256 56.2551 29.6332C55.8622 30.8934 55.1422 31.9682 54.2169 32.7934Z" fill="#4267B3"/>
<path d="M65.3253 32.0439C65.304 32.0298 65.288 32.0087 65.2791 31.9832C65.2578 31.9208 65.2915 31.8523 65.3555 31.8312C65.5102 31.7794 65.6693 31.7319 65.8275 31.6906C65.8924 31.6739 65.9582 31.7117 65.976 31.7758C65.9929 31.84 65.9546 31.9059 65.8898 31.9226C65.7369 31.963 65.5831 32.0087 65.4329 32.0588C65.3955 32.0702 65.3555 32.0641 65.3253 32.0439Z" fill="#4267B3"/>
<path d="M74.9973 41.2175C74.9555 41.1894 74.9342 41.1358 74.9493 41.0848C75.0418 40.7702 75.1138 40.446 75.1626 40.1208C75.1724 40.0549 75.2346 40.0101 75.3004 40.0197C75.3662 40.0294 75.4124 40.0909 75.4026 40.156C75.352 40.4917 75.2782 40.8265 75.1822 41.1516C75.1635 41.2149 75.096 41.2518 75.032 41.2334C75.0195 41.2307 75.008 41.2246 74.9973 41.2175ZM75.2809 38.6119C75.2515 38.5917 75.2311 38.5592 75.2284 38.5214C75.2062 38.1936 75.1609 37.8641 75.0942 37.5433C75.0809 37.4783 75.1226 37.415 75.1884 37.4018C75.2542 37.3887 75.3182 37.4308 75.3315 37.495C75.4 37.8263 75.4471 38.1655 75.4702 38.5047C75.4746 38.5706 75.424 38.6277 75.3573 38.6321C75.3289 38.6339 75.3022 38.626 75.2809 38.6119ZM67.4178 31.6607C67.3875 31.6405 67.3662 31.6062 67.3644 31.5667C67.3618 31.5008 67.4133 31.4445 67.4809 31.4419C67.6631 31.434 67.8489 31.4331 68.0338 31.4384C68.1929 31.4428 68.3538 31.4524 68.512 31.4665C68.5786 31.4727 68.6275 31.5307 68.6213 31.5966C68.6151 31.6625 68.5564 31.7108 68.4898 31.7047C68.3369 31.6906 68.1813 31.6818 68.0266 31.6774C67.848 31.6721 67.6675 31.673 67.4915 31.6809C67.464 31.6827 67.4391 31.6748 67.4178 31.6607ZM74.6382 36.0687C74.6204 36.0564 74.6053 36.0397 74.5964 36.0186C74.4604 35.7198 74.3031 35.4263 74.1271 35.1477C74.0915 35.0915 74.1093 35.0177 74.1662 34.9825C74.2231 34.9474 74.2978 34.965 74.3333 35.0212C74.5146 35.3094 74.6773 35.6117 74.8178 35.9202C74.8453 35.9808 74.8178 36.0511 74.7564 36.0784C74.7164 36.0968 74.672 36.0916 74.6382 36.0687ZM70.0462 32.0078C70.0026 31.9788 69.9822 31.9244 69.9991 31.8725C70.0195 31.8092 70.088 31.775 70.152 31.7952C70.4782 31.898 70.8009 32.0245 71.1102 32.1704C71.1706 32.1985 71.1964 32.2706 71.168 32.3304C71.1395 32.3901 71.0666 32.4156 71.0062 32.3875C70.7058 32.246 70.3938 32.1238 70.0782 32.0237C70.0658 32.0201 70.056 32.0149 70.0462 32.0078ZM73.1458 33.9034C73.1395 33.899 73.1333 33.8937 73.1271 33.8884C72.8951 33.6538 72.6444 33.4324 72.3831 33.2302C72.3306 33.1898 72.3209 33.1142 72.3626 33.0615C72.4035 33.0097 72.4791 33.0026 72.5324 33.0413C72.8018 33.2496 73.0604 33.4781 73.3004 33.7206C73.3475 33.7681 73.3466 33.8436 73.2986 33.8902C73.2569 33.9306 73.192 33.935 73.1458 33.9034Z" fill="#4267B3"/>
<path d="M74.1164 43.1394C74.0622 43.1034 74.0471 43.0304 74.0827 42.9759C74.168 42.8441 74.2498 42.707 74.3262 42.5708C74.3582 42.5128 74.432 42.4917 74.4907 42.5234C74.552 42.5532 74.5707 42.6279 74.5387 42.6859C74.4595 42.8274 74.3751 42.968 74.2871 43.1042C74.2515 43.1596 74.176 43.1763 74.12 43.1412C74.1182 43.1403 74.1173 43.1403 74.1164 43.1394Z" fill="#4267B3"/>
<path d="M69.0666 46.4824C69.0408 46.4648 69.0213 46.4376 69.016 46.4042C69.0044 46.3392 69.048 46.2768 69.1146 46.2653C69.2711 46.2381 69.4275 46.2056 69.5813 46.1678C69.6462 46.152 69.712 46.1915 69.728 46.2557C69.744 46.3198 69.704 46.3848 69.6391 46.4007C69.4808 46.4393 69.3182 46.4727 69.1573 46.5009C69.1244 46.507 69.0924 46.5 69.0666 46.4824Z" fill="#4267B3"/>
<path d="M64.0017 45.6202C63.9502 45.5851 63.9333 45.5166 63.9644 45.4621C63.9973 45.4049 64.072 45.3847 64.1297 45.4173C64.4133 45.5772 64.7102 45.7196 65.0133 45.8408C65.0764 45.8654 65.1049 45.9357 65.08 45.9973C65.0551 46.0588 64.984 46.0878 64.9217 46.0632C64.6089 45.9375 64.3022 45.7907 64.0097 45.6255C64.008 45.6238 64.0044 45.622 64.0017 45.6202ZM62.6889 44.6835C62.6844 44.6808 62.68 44.6773 62.6755 44.6738C62.4248 44.4506 62.1866 44.2089 61.968 43.9558C61.9244 43.9057 61.9306 43.8302 61.9813 43.7871C62.032 43.744 62.1093 43.7502 62.152 43.8003C62.3635 44.0455 62.5946 44.2792 62.8373 44.4954C62.8871 44.5393 62.8915 44.6158 62.8462 44.665C62.8062 44.7089 62.7386 44.716 62.6889 44.6835ZM66.4577 46.4894C66.4195 46.4639 66.3982 46.4182 66.4062 46.3699C66.4177 46.3048 66.48 46.2609 66.5457 46.2723C66.8666 46.3268 67.1955 46.3602 67.5226 46.3725C67.5893 46.3743 67.6417 46.4305 67.6391 46.4964C67.6364 46.5623 67.5804 46.6142 67.5137 46.6115C67.176 46.5992 66.8364 46.5641 66.5049 46.5078C66.488 46.5061 66.472 46.499 66.4577 46.4894ZM61.0782 42.6552C61.0631 42.6447 61.0489 42.6306 61.04 42.613C60.88 42.3186 60.7386 42.0119 60.6204 41.7009C60.5964 41.6385 60.6284 41.5699 60.6915 41.5462C60.7537 41.5233 60.824 41.5541 60.848 41.6165C60.9626 41.9179 61.0995 42.2149 61.2542 42.4997C61.2862 42.5577 61.264 42.6306 61.2044 42.6623C61.1626 42.6833 61.1137 42.6798 61.0782 42.6552ZM60.2613 40.2069C60.2346 40.1885 60.2151 40.1595 60.2097 40.1252C60.1617 39.7965 60.1351 39.4599 60.1306 39.126C60.1297 39.0601 60.1831 39.0056 60.2506 39.0047C60.3173 39.0039 60.3724 39.0566 60.3733 39.1234C60.3777 39.4468 60.4026 39.7728 60.4497 40.0909C60.4595 40.1559 60.4133 40.2175 60.3475 40.2262C60.3155 40.2306 60.2853 40.2227 60.2613 40.2069ZM60.3351 37.6286C60.296 37.6022 60.2746 37.5547 60.2844 37.5055C60.352 37.1786 60.4417 36.8535 60.552 36.538C60.5742 36.4756 60.6426 36.4422 60.7066 36.4642C60.7697 36.4852 60.8035 36.5538 60.7813 36.6171C60.6746 36.922 60.5875 37.2366 60.5226 37.553C60.5093 37.618 60.4453 37.6602 60.3795 37.647C60.3626 37.6435 60.3475 37.6373 60.3351 37.6286Z" fill="#4267B3"/>
<path d="M61.2933 35.2242C61.2399 35.1882 61.2239 35.117 61.2586 35.0625C61.3439 34.9246 61.4355 34.7875 61.5297 34.6556C61.5679 34.602 61.6426 34.5889 61.6968 34.6258C61.6977 34.6258 61.6977 34.6266 61.6986 34.6266C61.7537 34.6644 61.7662 34.74 61.7279 34.7936C61.6373 34.921 61.5484 35.0537 61.4657 35.1873C61.431 35.2436 61.3564 35.2611 61.2986 35.2269C61.2968 35.2269 61.295 35.226 61.2933 35.2242Z" fill="#4267B3"/>
<path d="M63.5209 35.1574C63.4915 35.1829 63.4826 35.2233 63.4969 35.2584L63.9191 36.2673C63.6213 36.6829 63.3875 37.1487 63.2355 37.6514L62.1724 37.9431C62.1351 37.9537 62.1084 37.9862 62.1058 38.024L62.0249 39.3307C62.0222 39.3685 62.0453 39.4046 62.0809 39.4186L63.0995 39.8369C63.1884 40.3536 63.3626 40.8449 63.6071 41.2931L63.064 42.243C63.0453 42.2764 63.0498 42.3177 63.0746 42.3467L63.952 43.3275C63.9778 43.3565 64.0186 43.3652 64.0542 43.3512L65.0746 42.9338C65.4951 43.2282 65.9662 43.4593 66.4746 43.6096L66.7698 44.6606C66.7804 44.6975 66.8133 44.7239 66.8515 44.7265L68.1733 44.8065C68.2115 44.8091 68.248 44.7863 68.2622 44.7511L68.6853 43.744C69.208 43.6561 69.7049 43.4839 70.1582 43.2422L71.1191 43.7792C71.1529 43.7976 71.1946 43.7932 71.224 43.7686L72.216 42.9012C72.2453 42.8758 72.2542 42.8353 72.24 42.8002L71.8178 41.7913C72.1155 41.3757 72.3493 40.9099 72.5013 40.4072L73.5644 40.1155C73.6017 40.105 73.6284 40.0724 73.6311 40.0346L73.712 38.7279C73.7146 38.6901 73.6915 38.6541 73.656 38.64L72.6373 38.2217C72.5484 37.705 72.3742 37.2137 72.1298 36.7656L72.6729 35.8156C72.6915 35.7822 72.6871 35.7409 72.6622 35.7119L71.7849 34.7312C71.7591 34.7022 71.7182 34.6934 71.6826 34.7074L70.6622 35.1249C70.2418 34.8305 69.7706 34.5993 69.2622 34.4491L68.9671 33.398C68.9564 33.3611 68.9235 33.3348 68.8853 33.3321L67.5635 33.2522C67.5253 33.2495 67.4889 33.2724 67.4738 33.3075L67.0506 34.3146C66.528 34.4025 66.0311 34.5747 65.5778 34.8164L64.6169 34.2795C64.5831 34.261 64.5413 34.2654 64.512 34.29L63.5209 35.1574Z" fill="#174389"/>
<path d="M67.104 40.1383L67.1031 40.1375C66.8035 39.9353 66.6018 39.6295 66.5351 39.2771C66.4684 38.9247 66.544 38.5679 66.7484 38.2718C66.9529 37.9756 67.2622 37.7761 67.6186 37.7102C68.3546 37.5731 69.0658 38.0539 69.2044 38.7806C69.2711 39.133 69.1955 39.4898 68.9911 39.7859C68.7866 40.0821 68.4773 40.2816 68.1209 40.3475C67.7635 40.4143 67.4026 40.3396 67.104 40.1383ZM68.4284 38.2173C68.2186 38.0758 67.9538 38.0134 67.6844 38.0626C67.4231 38.111 67.1973 38.2568 67.048 38.4739C66.8978 38.691 66.8426 38.952 66.8915 39.2103C66.9404 39.4687 67.0889 39.6919 67.3075 39.8395C67.3075 39.8395 67.3084 39.8395 67.3084 39.8404C67.5271 39.9881 67.792 40.0425 68.0524 39.9942C68.3138 39.9459 68.5395 39.8 68.6889 39.5829C68.8391 39.3659 68.8942 39.1049 68.8453 38.8465C68.7946 38.5811 68.6391 38.3597 68.4284 38.2173Z" fill="#4267B3"/>
<path d="M65.9911 41.8098C65.0391 41.1683 64.4417 40.0611 64.5173 38.8448C64.5306 38.6339 64.5635 38.4248 64.6159 38.2218C64.6231 38.1954 64.6293 38.1699 64.6373 38.1435L64.9875 38.2411C64.9297 38.4441 64.8942 38.6541 64.8808 38.8668C64.8666 39.1023 64.88 39.3334 64.9191 39.5558C64.9191 39.5566 64.9191 39.5566 64.9191 39.5575C64.9191 39.5584 64.9191 39.5601 64.9199 39.561C65.0951 40.5532 65.7706 41.3898 66.6942 41.7844C66.9333 41.8863 67.1884 41.9592 67.456 41.9979C67.4648 41.9988 67.4728 42.0005 67.4817 42.0014C67.4888 42.0023 67.4959 42.0032 67.5031 42.0041C67.5208 42.0067 67.5386 42.0085 67.5573 42.0102C67.6062 42.0155 67.6551 42.0199 67.7048 42.0225C68.5084 42.0708 69.2826 41.8081 69.8853 41.2808C70.0764 41.1138 70.2426 40.9267 70.3831 40.7237C70.6853 40.286 70.8631 39.7746 70.8968 39.2315C70.9457 38.4371 70.68 37.6716 70.1466 37.0758C69.6133 36.48 68.8773 36.125 68.0737 36.0758C67.5288 36.0424 66.9857 36.1557 66.5031 36.4035L66.336 36.0845C66.8764 35.8068 67.4853 35.6803 68.096 35.7172C68.9964 35.7717 69.8213 36.1698 70.4186 36.8377C71.016 37.5055 71.3146 38.3641 71.2595 39.2543C71.2222 39.8624 71.0222 40.4354 70.6835 40.9267C70.5271 41.1543 70.3404 41.3643 70.1262 41.5515C69.4506 42.142 68.5822 42.4373 67.6817 42.3828C67.0542 42.3433 66.4764 42.1368 65.9911 41.8098Z" fill="#4267B3"/>
<path d="M84.7671 21.2611C84.7351 21.2418 84.712 21.2066 84.7102 21.1671C84.7031 21.0115 84.6924 20.8569 84.6782 20.7048C84.672 20.6407 84.72 20.5836 84.7858 20.5774C84.8507 20.5722 84.9084 20.6196 84.9147 20.6838C84.9289 20.8384 84.9396 20.9975 84.9476 21.1557C84.9502 21.2207 84.9004 21.2752 84.8347 21.2778C84.8098 21.2796 84.7867 21.2734 84.7671 21.2611Z" fill="#4267B3"/>
<path d="M67.5218 31.3513C67.2853 31.2089 67.0524 31.056 66.8284 30.897C66.7751 30.8592 66.7626 30.7863 66.8009 30.7335C66.8391 30.6808 66.912 30.6685 66.9662 30.7063C67.224 30.8891 67.4933 31.0631 67.7671 31.2239C67.768 31.2239 67.768 31.2248 67.768 31.2248C67.8231 31.2582 67.8409 31.3293 67.808 31.3847C67.7742 31.4401 67.7022 31.4585 67.6453 31.4251C67.6053 31.4005 67.5635 31.3759 67.5218 31.3513ZM69.0489 32.1229C69 32.093 68.9786 32.0315 69.0018 31.9779C69.0266 31.9181 69.0969 31.89 69.1564 31.9155C69.4498 32.0368 69.7511 32.1475 70.0542 32.2442C70.1173 32.2635 70.1511 32.3303 70.1306 32.3918C70.1102 32.4533 70.0435 32.4876 69.9813 32.4674C69.672 32.3689 69.3635 32.2556 69.0649 32.1326C69.0595 32.129 69.0542 32.1264 69.0489 32.1229ZM71.4809 32.8294C71.4409 32.8048 71.4169 32.7582 71.4258 32.709C71.4373 32.6458 71.4986 32.6027 71.5626 32.6141C71.8764 32.6686 72.1955 32.7108 72.5111 32.7389C72.576 32.7442 72.624 32.8013 72.6186 32.8663C72.6124 32.9305 72.5555 32.9779 72.4898 32.9727C72.1671 32.9437 71.8418 32.9006 71.5218 32.8452C71.5066 32.8417 71.4933 32.8365 71.4809 32.8294ZM74.0098 32.9867C73.9778 32.9674 73.9555 32.9331 73.9529 32.8927C73.9493 32.8286 74 32.7732 74.0658 32.7697C74.3822 32.7539 74.7031 32.7249 75.0186 32.6818C75.0835 32.673 75.1431 32.7178 75.152 32.782C75.1609 32.8461 75.1155 32.905 75.0506 32.9138C74.7289 32.9577 74.4018 32.9876 74.0782 33.0034C74.0524 33.0052 74.0293 32.9982 74.0098 32.9867ZM76.5093 32.5816C76.4844 32.5667 76.4658 32.5429 76.4569 32.5131C76.4391 32.4507 76.4755 32.3865 76.5387 32.3689C76.8444 32.2837 77.1502 32.1844 77.448 32.0737C77.5093 32.0508 77.5778 32.0816 77.6009 32.1422C77.624 32.2029 77.5929 32.2705 77.5315 32.2934C77.2275 32.4067 76.9155 32.5078 76.6035 32.5948C76.5698 32.6036 76.536 32.5983 76.5093 32.5816ZM78.856 31.6369C78.8391 31.6264 78.824 31.6114 78.8142 31.593C78.7831 31.5359 78.8044 31.4647 78.8613 31.4339C79.1413 31.2836 79.4169 31.1193 79.6818 30.9471C79.736 30.911 79.8098 30.926 79.8462 30.9805C79.8826 31.0341 79.8675 31.107 79.8124 31.143C79.5422 31.3197 79.2604 31.4866 78.9742 31.6404C78.936 31.6606 78.8906 31.658 78.856 31.6369ZM80.9342 30.2027C80.9244 30.1966 80.9146 30.1896 80.9066 30.1799C80.8631 30.1316 80.8684 30.0577 80.9173 30.0147C81.1564 29.8073 81.3884 29.5867 81.6089 29.36C81.6542 29.3134 81.7289 29.3116 81.776 29.3565C81.8231 29.4013 81.8249 29.4751 81.7795 29.5217C81.5546 29.7528 81.3173 29.9778 81.0738 30.1896C81.0338 30.2256 80.9769 30.2291 80.9342 30.2027ZM82.6382 28.3485C82.6355 28.3467 82.6329 28.345 82.6311 28.3432C82.5778 28.3054 82.5662 28.2325 82.6044 28.1798C82.7689 27.9548 82.9262 27.721 83.072 27.4846C83.0915 27.453 83.1111 27.4214 83.1298 27.3897C83.1635 27.3344 83.2364 27.3159 83.2924 27.3493L83.2933 27.3502C83.3484 27.3836 83.3662 27.4548 83.3333 27.5101C83.3138 27.5426 83.2942 27.5752 83.2738 27.6068C83.1244 27.8485 82.9635 28.0866 82.7955 28.3169C82.76 28.3669 82.6907 28.3801 82.6382 28.3485ZM83.88 26.1638C83.8311 26.1339 83.8098 26.0724 83.8329 26.0188C83.9564 25.7297 84.0684 25.4318 84.1671 25.1321C84.1875 25.0706 84.2542 25.0372 84.3164 25.0566C84.3787 25.0768 84.4124 25.1427 84.3929 25.2042C84.2924 25.51 84.1769 25.8149 84.0515 26.1093C84.0258 26.1691 83.9564 26.1972 83.896 26.1717C83.8906 26.17 83.8853 26.1665 83.88 26.1638ZM84.6018 23.7612C84.5618 23.7366 84.5378 23.6892 84.5466 23.6408C84.6026 23.3306 84.6462 23.0151 84.6755 22.7032C84.6818 22.639 84.7395 22.5916 84.8044 22.5977C84.8693 22.6039 84.9173 22.661 84.9111 22.7251C84.8809 23.0441 84.8373 23.3658 84.7795 23.6821C84.768 23.7454 84.7066 23.7885 84.6418 23.777C84.6275 23.7744 84.6133 23.7691 84.6018 23.7612Z" fill="#4267B3"/>
<path d="M65.6222 29.9066C65.6151 29.9022 65.608 29.8969 65.6017 29.8917C65.4853 29.7818 65.3715 29.6693 65.2631 29.5577C65.2177 29.5111 65.2195 29.4373 65.2666 29.3925C65.3137 29.3477 65.3884 29.3494 65.4337 29.3951C65.5404 29.5041 65.6515 29.614 65.7662 29.7221C65.8133 29.7669 65.8151 29.8407 65.7697 29.8873C65.7306 29.9277 65.6693 29.9347 65.6222 29.9066Z" fill="#4267B3"/>
<path d="M62.1058 21.8429C62.072 21.8227 62.0489 21.7858 62.0489 21.7436C62.048 21.5872 62.0507 21.4281 62.0569 21.2708C62.0595 21.2058 62.1147 21.1557 62.1795 21.1583C62.2453 21.1609 62.296 21.2154 62.2933 21.2796C62.2871 21.4342 62.2844 21.5898 62.2853 21.7427C62.2853 21.8077 62.2329 21.8596 62.1671 21.8605C62.1449 21.8605 62.1235 21.8543 62.1058 21.8429Z" fill="#4267B3"/>
<path d="M62.2782 19.855C62.2382 19.8304 62.2142 19.7838 62.2231 19.7346C62.2782 19.4244 62.3475 19.1124 62.4293 18.8066C62.4462 18.7442 62.5111 18.7064 62.5742 18.7231C62.6373 18.7398 62.6755 18.804 62.6587 18.8664C62.5787 19.1661 62.5102 19.4719 62.456 19.7759C62.4444 19.8392 62.3831 19.8823 62.3191 19.8708C62.304 19.8682 62.2907 19.8629 62.2782 19.855ZM62.976 17.4884C62.9271 17.4586 62.9058 17.3979 62.9289 17.3434C63.0515 17.0517 63.1875 16.7608 63.3342 16.4814C63.3644 16.4242 63.4355 16.4014 63.4942 16.4313C63.5529 16.4611 63.5751 16.5314 63.5449 16.5894C63.4018 16.8636 63.2684 17.1475 63.1484 17.434C63.1235 17.4937 63.0542 17.5218 62.9938 17.4972C62.9867 17.4937 62.9813 17.4911 62.976 17.4884ZM64.1804 15.3284C64.1778 15.3266 64.176 15.3258 64.1742 15.324C64.1209 15.2871 64.1084 15.2133 64.1458 15.1605C64.3298 14.9031 64.5271 14.65 64.7333 14.4083C64.7751 14.3591 64.8498 14.3529 64.9004 14.3942C64.9502 14.4355 64.9573 14.5094 64.9147 14.5594C64.7129 14.7958 64.52 15.0445 64.3395 15.2968C64.3022 15.3468 64.2329 15.3609 64.1804 15.3284ZM65.8347 13.4838C65.8249 13.4777 65.816 13.4706 65.8089 13.4627C65.7653 13.4144 65.7689 13.3406 65.8178 13.2975C66.0542 13.0857 66.3031 12.8818 66.5573 12.6903C66.6098 12.6507 66.6835 12.6613 66.7235 12.7122C66.7635 12.7641 66.7529 12.837 66.7013 12.8766C66.4524 13.0637 66.2089 13.2641 65.9769 13.4715C65.936 13.5067 65.8782 13.5102 65.8347 13.4838ZM67.8569 12.0417C67.84 12.0321 67.8258 12.0171 67.816 11.9995C67.784 11.9433 67.8035 11.8721 67.8604 11.8396C68.1378 11.6841 68.4258 11.5382 68.7164 11.4064C68.776 11.3791 68.8462 11.4046 68.8738 11.4635C68.9013 11.5224 68.8755 11.5918 68.816 11.619C68.5315 11.7482 68.2498 11.8914 67.9778 12.0435C67.9387 12.0654 67.8924 12.0628 67.8569 12.0417ZM70.1475 11.0689C70.1235 11.0548 70.1049 11.032 70.096 11.003C70.0773 10.9415 70.112 10.8756 70.1751 10.8571C70.4809 10.7648 70.7938 10.6849 71.1058 10.6181C71.1698 10.6049 71.2329 10.6444 71.2462 10.7077C71.2595 10.771 71.2195 10.8334 71.1555 10.8466C70.8507 10.9116 70.544 10.9898 70.2444 11.0803C70.2107 11.0909 70.176 11.0856 70.1475 11.0689ZM72.5973 10.6146C72.5662 10.5952 72.544 10.5627 72.5413 10.5232C72.5369 10.459 72.5858 10.4028 72.6507 10.3975C72.9698 10.3738 73.2924 10.3632 73.6115 10.3667C73.6764 10.3676 73.7298 10.4204 73.7289 10.4854C73.728 10.5504 73.6747 10.6023 73.6089 10.6014C73.2969 10.5979 72.9795 10.6084 72.6675 10.6313C72.6427 10.633 72.6178 10.6269 72.5973 10.6146ZM75.0889 10.7042C75.0498 10.6805 75.0267 10.6348 75.0338 10.5873C75.0435 10.5232 75.104 10.4792 75.168 10.4889C75.4827 10.5346 75.8009 10.5952 76.112 10.6673C76.176 10.6814 76.2151 10.7455 76.2 10.8079C76.1849 10.8712 76.1209 10.9098 76.0578 10.8949C75.752 10.8246 75.4409 10.7657 75.1333 10.72C75.1173 10.7174 75.1022 10.7121 75.0889 10.7042ZM77.5013 11.329C77.4533 11.3 77.432 11.2411 77.4524 11.1875C77.4755 11.1269 77.544 11.097 77.6053 11.1199C77.9049 11.2332 78.2018 11.3598 78.488 11.496C78.5467 11.525 78.5715 11.5944 78.5431 11.6524C78.5147 11.7104 78.4435 11.735 78.3849 11.7069C78.104 11.5733 77.8133 11.4494 77.52 11.3378C77.5138 11.3352 77.5075 11.3325 77.5013 11.329ZM80.488 13.011C80.4835 13.0084 80.48 13.0057 80.4755 13.0031C80.2302 12.8107 79.9742 12.6261 79.7138 12.4556C79.6595 12.4196 79.6444 12.3475 79.6809 12.2931C79.7173 12.2394 79.7902 12.2227 79.8453 12.2605C80.1111 12.4354 80.3724 12.6235 80.6231 12.8194C80.6747 12.8599 80.6827 12.9337 80.6418 12.9838C80.6053 13.0304 80.5387 13.0409 80.488 13.011Z" fill="#4267B3"/>
<path d="M81.9547 14.3907C81.9449 14.3845 81.9351 14.3775 81.9271 14.3679C81.824 14.251 81.7173 14.1367 81.6107 14.026C81.5653 13.9794 81.5671 13.9047 81.6142 13.8608C81.6613 13.816 81.736 13.8177 81.7813 13.8643C81.8898 13.9768 81.9991 14.0945 82.1049 14.2132C82.1485 14.2615 82.1431 14.3353 82.0942 14.3784C82.0542 14.4135 81.9973 14.4162 81.9547 14.3907Z" fill="#4267B3"/>
<path d="M80.7155 16.8672C80.688 16.8162 80.632 16.7881 80.5742 16.7978L78.9386 17.0526C78.4302 16.477 77.8249 15.9779 77.1369 15.5815L77.0791 13.947C77.0773 13.8899 77.0382 13.8398 76.9831 13.8231L75.0844 13.2483C75.0293 13.2317 74.9689 13.251 74.9342 13.2976L73.96 14.6201C73.1662 14.5674 72.3813 14.6456 71.6338 14.8416L70.4231 13.7255C70.3804 13.686 70.3182 13.6781 70.2666 13.7053L68.5129 14.6263C68.4613 14.6535 68.4329 14.7089 68.4426 14.766L68.7004 16.383C68.1182 16.8857 67.6133 17.4841 67.2124 18.1643L65.5591 18.2214C65.5013 18.2232 65.4506 18.2618 65.4338 18.3163L64.8524 20.1934C64.8355 20.2479 64.8551 20.3077 64.9022 20.3419L66.24 21.3051C66.1866 22.0898 66.2658 22.8658 66.4631 23.6049L65.3342 24.8018C65.2951 24.844 65.2862 24.9055 65.3138 24.9564L66.2453 26.6903C66.2729 26.7413 66.3289 26.7694 66.3866 26.7597L68.0222 26.5049C68.5306 27.0805 69.136 27.5796 69.824 27.976L69.8818 29.6105C69.8835 29.6676 69.9226 29.7177 69.9778 29.7344L71.8764 30.3091C71.9315 30.3258 71.992 30.3065 72.0266 30.2599L73.0009 28.9374C73.7946 28.9901 74.5795 28.9119 75.3271 28.7159L76.5378 29.832C76.5804 29.8715 76.6435 29.8794 76.6942 29.8522L78.448 28.9312C78.4995 28.904 78.528 28.8486 78.5182 28.7915L78.2604 27.1745C78.8426 26.6718 79.3475 26.0734 79.7484 25.3932L81.4018 25.3361C81.4595 25.3343 81.5102 25.2957 81.5271 25.2412L82.1084 23.3641C82.1253 23.3096 82.1058 23.2498 82.0586 23.2156L80.7209 22.2524C80.7742 21.4677 80.6942 20.6917 80.4969 19.9526L81.6258 18.7557C81.6658 18.7135 81.6738 18.652 81.6462 18.601L80.7155 16.8672Z" fill="#174389"/>
<path d="M72.4684 23.4168C72.3111 23.3219 72.1671 23.2041 72.04 23.0653C71.6924 22.6847 71.5146 22.1935 71.5404 21.682C71.5662 21.1697 71.792 20.6987 72.1769 20.3551C72.5618 20.0115 73.0586 19.8357 73.576 19.8612C74.0942 19.8867 74.5706 20.1099 74.9182 20.4904C75.2658 20.8709 75.4435 21.3622 75.4178 21.8736C75.392 22.386 75.1662 22.857 74.7813 23.2006C74.3964 23.5442 73.8995 23.72 73.3822 23.6945C73.0542 23.6778 72.7413 23.582 72.4684 23.4168ZM74.3058 20.4386C74.0826 20.3032 73.8275 20.225 73.5591 20.2118C73.136 20.1907 72.7298 20.334 72.416 20.6152C72.1022 20.8964 71.9173 21.2813 71.896 21.6996C71.8746 22.1179 72.0195 22.5195 72.304 22.8297C72.5884 23.1408 72.9778 23.3227 73.4009 23.3438C73.824 23.3649 74.2302 23.2217 74.544 22.9405C74.8578 22.6593 75.0426 22.2743 75.064 21.856C75.0853 21.4377 74.9404 21.0361 74.656 20.7259C74.552 20.6126 74.4338 20.5159 74.3058 20.4386Z" fill="#4267B3"/>
<path d="M70.8507 25.9925C68.9627 24.8509 68.0142 22.5476 68.6916 20.3612C68.8169 19.9579 68.9893 19.5817 69.2027 19.2372C70.3573 17.3698 72.6871 16.4322 74.8987 17.1018C74.9387 17.1141 74.9778 17.1264 75.0178 17.1396C75.2836 17.2275 75.5413 17.3364 75.7867 17.4656C75.8151 17.4806 75.8436 17.4964 75.872 17.5113L75.6987 17.818C75.4142 17.6607 75.1102 17.5324 74.7947 17.4375C74.792 17.4366 74.7885 17.4357 74.7858 17.4349C72.3556 16.7046 69.7751 18.0614 69.0311 20.4632C68.2862 22.8684 69.6587 25.4239 72.0916 26.1612C74.1458 26.7834 76.3085 25.9125 77.3805 24.1787C77.5787 23.8588 77.7387 23.5099 77.8551 23.1347C78.1004 22.3438 78.1236 21.5036 77.9236 20.7057L78.2684 20.6213C78.4836 21.4817 78.4587 22.3859 78.1947 23.2375C78.0693 23.6409 77.8969 24.017 77.6836 24.3615C76.5289 26.2289 74.1991 27.1665 71.9876 26.4969C71.5804 26.3739 71.1991 26.2034 70.8507 25.9925Z" fill="#4267B3"/>
<path d="M145.108 94.1302L144.331 39.0575C144.322 38.4529 144.847 37.959 145.498 37.959C146.55 37.959 147.404 37.1663 147.404 36.1891V22.7375C147.404 21.8807 148.167 21.1952 149.09 21.2234L153.288 21.3526C154.322 21.3842 155.147 22.1619 155.166 23.1216L156.602 94.1302H145.108Z" fill="#174389"/>
<path d="M163.45 104.315C163.644 104.315 163.801 104.16 163.801 103.968V62.4254C163.801 62.2338 163.644 62.0782 163.45 62.0782C163.256 62.0782 163.099 62.2338 163.099 62.4254V103.967C163.098 104.16 163.256 104.315 163.45 104.315Z" fill="#4267B3"/>
<path d="M172.976 104.315C173.17 104.315 173.327 104.16 173.327 103.968V62.4254C173.327 62.2338 173.17 62.0782 172.976 62.0782C172.782 62.0782 172.625 62.2338 172.625 62.4254V103.967C172.625 104.16 172.782 104.315 172.976 104.315Z" fill="#4267B3"/>
<path d="M196.382 104.579C196.428 104.579 196.475 104.57 196.52 104.551C196.699 104.476 196.782 104.271 196.706 104.095L178.729 62.2891C178.653 62.1124 178.446 62.0307 178.268 62.1054C178.089 62.1801 178.005 62.3849 178.082 62.5615L196.059 104.367C196.115 104.5 196.245 104.579 196.382 104.579Z" fill="#4267B3"/>
<path d="M185.277 104.579C185.324 104.579 185.37 104.57 185.415 104.551C185.594 104.476 185.677 104.271 185.601 104.095L167.624 62.2891C167.548 62.1124 167.341 62.0307 167.163 62.1054C166.984 62.1801 166.9 62.3849 166.977 62.5615L184.954 104.367C185.011 104.5 185.141 104.579 185.277 104.579Z" fill="#4267B3"/>
<path d="M162.659 62.8085H179.617C179.755 62.8085 179.867 62.6977 179.867 62.5615V62.0756C179.867 61.9393 179.755 61.8286 179.617 61.8286H162.659C162.521 61.8286 162.409 61.9393 162.409 62.0756V62.5606C162.409 62.6977 162.52 62.8085 162.659 62.8085Z" fill="#4267B3"/>
<path d="M170.017 69.1657H181.154C181.348 69.1657 181.505 69.0101 181.505 68.8186C181.505 68.627 181.348 68.4714 181.154 68.4714H170.017C169.823 68.4714 169.666 68.627 169.666 68.8186C169.665 69.0101 169.822 69.1657 170.017 69.1657Z" fill="#4267B3"/>
<path d="M184.571 76.377H173.434V77.0721H184.571V76.377Z" fill="#4267B3"/>
<path d="M187.879 84.2834H176.742V84.9786H187.879V84.2834Z" fill="#4267B3"/>
<path d="M180.212 92.885H191.348C191.542 92.885 191.7 92.7295 191.7 92.5379C191.7 92.3463 191.542 92.1908 191.348 92.1908H180.212C180.018 92.1908 179.86 92.3463 179.86 92.5379C179.86 92.7295 180.017 92.885 180.212 92.885Z" fill="#4267B3"/>
<path d="M183.565 100.791H194.702C194.896 100.791 195.053 100.636 195.053 100.444C195.053 100.253 194.896 100.097 194.702 100.097H183.565C183.372 100.097 183.214 100.253 183.214 100.444C183.214 100.636 183.372 100.791 183.565 100.791Z" fill="#4267B3"/>
<path d="M115.09 108.561C114.26 108.632 112.819 108.747 111.683 108.796C111 108.826 110.606 108.76 110.38 108.671C110.38 108.696 110.381 108.72 110.382 108.742C110.388 108.86 110.484 108.954 110.605 108.962C112.752 109.08 114.459 109.003 115.067 108.966C115.192 108.958 115.268 108.824 115.203 108.717C115.171 108.664 115.132 108.613 115.09 108.561Z" fill="url(#paint8_linear_4456_21752)"/>
<path d="M111.683 108.796C112.819 108.747 114.26 108.632 115.09 108.561C114.274 107.57 111.683 106.903 111.683 106.903H110.951C110.448 107.62 110.375 108.303 110.38 108.671C110.606 108.76 110.999 108.826 111.683 108.796Z" fill="url(#paint9_linear_4456_21752)"/>
<path d="M110.828 105.722L110.896 107.062C110.903 107.207 111.013 107.33 111.16 107.35C111.306 107.371 111.502 107.374 111.709 107.305C111.837 107.263 111.932 107.156 111.956 107.026L112.192 105.722H110.828Z" fill="url(#paint10_linear_4456_21752)"/>
<path d="M101.323 108.787C100.963 108.737 100.8 108.552 100.732 108.354C100.731 108.356 100.731 108.358 100.73 108.36C100.676 108.568 100.8 108.784 101.045 108.887C101.342 109.011 101.667 109.032 101.918 109.022C102.188 109.011 102.436 108.901 102.572 108.723L102.574 108.721C102.304 108.853 101.923 108.869 101.323 108.787Z" fill="url(#paint11_linear_4456_21752)"/>
<path d="M103.02 105.714H102.416C101.497 105.695 100.919 107.612 100.731 108.354C100.799 108.552 100.962 108.737 101.322 108.787C101.923 108.869 102.303 108.853 102.574 108.721C103.071 108.075 103.318 107.128 103.436 106.576C103.571 105.948 103.02 105.714 103.02 105.714Z" fill="url(#paint12_linear_4456_21752)"/>
<path d="M102.494 104.47L102.159 105.787C102.118 105.949 102.196 106.116 102.348 106.192C102.535 106.287 102.799 106.387 103.042 106.358C103.156 106.345 103.251 106.265 103.288 106.159L103.78 104.772L102.494 104.47Z" fill="url(#paint13_linear_4456_21752)"/>
<path d="M102.094 104.851C102.511 105.217 103.868 105.265 103.868 105.265C108.753 93.674 110.751 92.0272 110.751 92.0272C110.045 96.4018 110.637 106.088 110.637 106.088C111.444 106.439 112.483 106.088 112.483 106.088C112.548 98.9257 113.661 92.6793 114.977 87.7545C111.676 87.6816 109.919 86.5638 109.346 86.1156C106.594 90.5025 102.094 104.851 102.094 104.851Z" fill="#40649D"/>
<path d="M110.185 72.7862C109.56 75.8681 109.784 81.3834 109.931 83.8994C109.972 84.6068 109.473 85.5867 109.069 86.2554C109.006 86.36 109.045 86.4944 109.155 86.5507C109.83 86.8943 112.119 87.9585 114.772 88.0903C114.949 88.0991 115.108 87.9796 115.153 87.8109C117.121 80.5468 119.406 75.9042 119.406 75.9042C116.884 71.9206 110.185 72.7862 110.185 72.7862Z" fill="#174389"/>
<path d="M111.084 91.753C111.056 91.753 111.028 91.746 111.003 91.7302C110.929 91.6854 110.906 91.5905 110.95 91.5175C110.977 91.4745 111.608 90.4647 112.887 89.8549C112.964 89.818 113.059 89.8496 113.096 89.9269C113.133 90.0034 113.1 90.0965 113.023 90.1334C111.831 90.702 111.223 91.6687 111.218 91.6783C111.188 91.7267 111.137 91.753 111.084 91.753Z" fill="url(#paint14_linear_4456_21752)"/>
<path d="M106.265 81.6302C106.466 83.0662 107.059 84.6322 108.245 86.2948L108.696 85.931C108.696 85.931 108.175 83.843 108.471 81.4729C107.74 81.3323 106.875 81.4782 106.265 81.6302Z" fill="url(#paint15_linear_4456_21752)"/>
<path d="M110.883 76.5886L110.185 72.7861C110.185 72.7861 105.521 76.3101 106.265 81.6303C106.876 81.4773 107.74 81.3323 108.471 81.4729C108.684 79.7663 109.322 77.913 110.883 76.5886Z" fill="#174389"/>
<path d="M119.407 75.9042L117.607 79.7374C117.898 82.0513 119.156 83.0522 120.511 83.4354C120.596 82.3808 120.866 81.5284 121.116 80.9396C119.383 79.1715 119.407 75.9042 119.407 75.9042Z" fill="#174389"/>
<path d="M121.116 80.9396C120.865 81.5292 120.596 82.3808 120.511 83.4353C124.128 84.8229 125.085 82.1321 125.085 82.1321L124.417 82.0152C122.907 82.1734 121.852 81.6918 121.116 80.9396Z" fill="url(#paint16_linear_4456_21752)"/>
<path d="M117.748 71.1727L116.879 74.3311C116.781 74.6861 116.393 74.8768 116.048 74.7397C115.676 74.5921 115.203 74.3917 114.796 74.1738C114.361 73.9418 114.225 73.389 114.5 72.9839L116.308 70.3203L117.748 71.1727Z" fill="url(#paint17_linear_4456_21752)"/>
<path d="M126.743 80.0186L104.474 88.0313C103.54 88.367 103.093 89.4189 103.505 90.3136L103.572 90.4603C103.937 91.2521 104.883 91.5992 105.681 91.2336L127.304 81.3446L126.743 80.0186Z" fill="url(#paint18_linear_4456_21752)"/>
<path opacity="0.34" d="M136.979 85.8704C143.05 85.8704 147.972 81.0924 147.972 75.1984C147.972 69.3044 143.05 64.5264 136.979 64.5264C130.907 64.5264 125.986 69.3044 125.986 75.1984C125.986 81.0924 130.907 85.8704 136.979 85.8704Z" fill="url(#paint19_linear_4456_21752)"/>
<path d="M136.979 63.3234C130.223 63.3234 124.747 68.64 124.747 75.1984C124.747 81.7568 130.223 87.0735 136.979 87.0735C143.734 87.0735 149.211 81.7568 149.211 75.1984C149.211 68.64 143.734 63.3234 136.979 63.3234ZM136.979 85.33C131.215 85.33 126.543 80.7945 126.543 75.1993C126.543 69.6041 131.215 65.0686 136.979 65.0686C142.742 65.0686 147.414 69.6041 147.414 75.1993C147.414 80.7937 142.742 85.33 136.979 85.33Z" fill="url(#paint20_linear_4456_21752)"/>
<path d="M125.608 76.5975C125.572 76.3172 125.547 76.0307 125.532 75.7468C125.531 75.7091 125.56 75.6774 125.597 75.6757C125.635 75.673 125.668 75.7029 125.669 75.7398C125.684 76.0201 125.708 76.3031 125.744 76.5799C125.748 76.6168 125.722 76.6511 125.684 76.6555C125.682 76.6555 125.678 76.6564 125.676 76.6564C125.643 76.6564 125.612 76.6318 125.608 76.5975ZM125.748 73.3346C125.711 73.3275 125.686 73.2924 125.693 73.2555C125.832 72.4927 126.053 71.7422 126.352 71.026C128.114 66.8017 132.284 64.0721 136.979 64.0721C139.167 64.0721 141.295 64.6732 143.132 65.8104C143.164 65.8306 143.174 65.8719 143.154 65.9044C143.133 65.9361 143.092 65.9457 143.059 65.9255C141.244 64.8015 139.141 64.2075 136.978 64.2075C132.34 64.2075 128.219 66.9036 126.478 71.077C126.478 71.077 126.478 71.077 126.478 71.0778C126.183 71.7861 125.964 72.527 125.828 73.2801C125.821 73.3126 125.793 73.3363 125.76 73.3363C125.756 73.3363 125.752 73.3354 125.748 73.3346Z" fill="#7D97F4"/>
<path d="M119.65 68.7727C119.658 68.8272 118.925 72.3775 118.925 72.3775L116.884 71.9206L117.072 68.4537C117.072 68.4537 119.517 67.8649 119.65 68.7727Z" fill="url(#paint21_linear_4456_21752)"/>
<path d="M117.531 69.2262L117.288 71.0435C117.284 71.0672 117.285 71.0901 117.288 71.1129C117.308 71.2553 117.416 71.7404 117.911 71.6015C118.36 71.4759 118.772 71.3678 119.057 71.4539C119.185 71.4925 119.261 71.6208 119.234 71.75C119.168 72.0725 119.004 72.7967 118.764 73.4039C118.715 73.5269 118.579 73.592 118.45 73.5551C118.063 73.4435 117.253 73.186 116.651 72.8274C116.57 72.7791 116.521 72.6912 116.525 72.5972C116.545 72.1385 116.599 70.7438 116.554 70.3528C116.511 69.9854 116.055 69.7657 115.858 69.6875C115.793 69.662 115.742 69.6111 115.716 69.5469C115.625 69.3202 115.498 68.7947 116.168 68.5794C116.308 68.5345 116.382 68.3852 116.332 68.2481C116.233 67.9748 116.191 67.5582 116.709 67.3289C117.235 67.0951 117.629 67.3728 117.842 67.5986C117.928 67.69 118.066 67.7041 118.171 67.6373C118.232 67.5995 118.31 67.5872 118.404 67.6452C118.531 67.7234 118.7 67.6698 118.765 67.5371C118.891 67.2814 119.148 67.0072 119.664 67.0942C120.578 67.2489 120.682 68.2516 120.441 68.8386C120.2 69.4256 119.218 69.2024 118.724 68.9063C118.35 68.6813 117.864 68.9168 117.652 69.0434C117.586 69.0812 117.541 69.1497 117.531 69.2262Z" fill="url(#paint22_linear_4456_21752)"/>
<path d="M116.471 71.0145C116.471 71.0145 116.847 69.9732 116.46 69.7183C116.074 69.4635 115.502 69.5953 115.628 70.3502C115.785 71.2887 116.471 71.0145 116.471 71.0145Z" fill="url(#paint23_linear_4456_21752)"/>
<path d="M108.51 85.8687L110.615 85.6991L111.527 86.5304C111.527 86.5304 111.311 86.8248 110.637 86.6561C109.963 86.4865 109.039 86.4452 109.039 86.4452C109.039 86.4452 108.108 86.86 108.097 86.084L108.51 85.8687Z" fill="url(#paint24_linear_4456_21752)"/>
<path d="M124.817 82.6251C124.999 82.7657 125.623 82.4722 126.004 82.2692C126.19 82.1699 126.281 81.9554 126.217 81.756C126.125 81.4695 125.972 81.0995 125.783 81.0529C125.47 80.9756 124.067 82.0451 124.817 82.6251Z" fill="url(#paint25_linear_4456_21752)"/>
<path d="M104.913 90.9129C104.941 90.9129 104.968 90.8953 104.978 90.8672C104.99 90.832 104.972 90.7934 104.935 90.7811C104.301 90.564 103.969 90.2125 103.948 89.7362C103.926 89.2537 104.235 88.8047 104.716 88.6193L107.389 87.5884C107.425 87.5753 107.442 87.5357 107.428 87.5006C107.414 87.4654 107.375 87.4487 107.34 87.4619L104.666 88.4927C104.131 88.6992 103.787 89.201 103.811 89.7415C103.835 90.2793 104.197 90.6721 104.89 90.9085C104.898 90.912 104.906 90.9129 104.913 90.9129Z" fill="#7D97F4"/>
<path d="M108.189 87.2756C108.197 87.2756 108.206 87.2738 108.214 87.2712L108.561 87.1376C108.596 87.1244 108.613 87.0849 108.6 87.0498C108.586 87.0146 108.546 86.997 108.511 87.0111L108.164 87.1447C108.129 87.1578 108.112 87.1974 108.125 87.2325C108.136 87.2589 108.162 87.2756 108.189 87.2756Z" fill="#7D97F4"/>
<path d="M26.8008 44.172L25.8062 45.1414C24.3946 45.0069 23.3066 44.5728 22.4711 44.0218C22.9742 42.7853 23.4844 42.0524 23.8862 41.6227C25.2 43.4506 26.8008 44.172 26.8008 44.172Z" fill="url(#paint26_linear_4456_21752)"/>
<path d="M19.8782 40.5444L22.2257 36.9167C22.3795 38.9634 23.0791 40.5013 23.8862 41.6235C23.4853 42.0533 22.9742 42.787 22.4711 44.0226C20.3848 42.6482 19.8782 40.5444 19.8782 40.5444Z" fill="#40649D"/>
<path d="M17.3813 69.2183C18.5511 69.2719 19.6844 69.2385 20.4409 69.1998C19.752 68.7156 18.1662 67.661 16.8382 67.241L15.9271 67.1874C15.9271 67.1874 15.6186 67.6514 15.5084 68.7138C15.6595 68.901 16.1004 69.1603 17.3813 69.2183Z" fill="url(#paint27_linear_4456_21752)"/>
<path d="M20.4506 69.2069C20.448 69.2051 20.4444 69.2025 20.4409 69.1998C19.6844 69.2385 18.552 69.2719 17.3813 69.2183C16.1004 69.1603 15.6586 68.9002 15.5075 68.7139C15.5022 68.7631 15.4969 68.8114 15.4933 68.8633C15.4746 69.0961 15.6498 69.3009 15.8853 69.3185C16.8435 69.3905 19.2195 69.5522 20.3662 69.4934C20.5173 69.4854 20.5733 69.2939 20.4506 69.2069Z" fill="url(#paint28_linear_4456_21752)"/>
<path d="M9.01155 68.9089C8.92621 68.3658 8.78844 67.5802 8.68266 67.3798C8.51644 67.0652 7.94577 67.3798 7.94577 67.3798C7.94577 67.3798 7.54577 67.5644 7.36088 67.8719C7.24355 68.0679 6.91821 68.6259 6.69866 69.0047C6.67377 69.0486 6.6631 69.0943 6.66399 69.1392L8.94755 69.2182C9.00355 69.1304 9.03021 69.0223 9.01155 68.9089Z" fill="url(#paint29_linear_4456_21752)"/>
<path d="M6.66486 69.1401C6.66841 69.2693 6.77241 69.3862 6.91819 69.3897L8.54486 69.4336C8.71641 69.438 8.86575 69.3502 8.94841 69.2184L6.66486 69.1401Z" fill="url(#paint30_linear_4456_21752)"/>
<path d="M9.18665 65.5748C9.1671 65.6398 8.87198 67.0538 8.7431 67.6742C8.70754 67.8456 8.5511 67.966 8.37421 67.9572C8.27732 67.9528 8.16532 67.944 8.0471 67.9291C7.83821 67.9027 7.6791 67.7296 7.6711 67.5213C7.64976 66.9774 7.63999 65.9342 7.84176 65.53C8.1191 64.972 9.18665 65.5748 9.18665 65.5748Z" fill="url(#paint31_linear_4456_21752)"/>
<path d="M15.7475 65.9799C15.8737 65.9755 15.6968 66.6259 15.8888 67.2647C15.9324 67.4089 16.0408 67.5222 16.1928 67.524C16.2915 67.5249 16.4079 67.5231 16.5262 67.5143C16.7048 67.5002 16.8479 67.3632 16.8639 67.1874L17.0195 65.5309L15.7475 65.9799Z" fill="url(#paint32_linear_4456_21752)"/>
<path d="M19.2871 48.3672C19.2302 48.6388 17.2373 60.1342 17.1164 66.0827C17.1147 66.182 17.04 66.2664 16.9404 66.2796C16.6871 66.3147 16.1947 66.3596 15.7164 66.2717C15.6507 66.2594 15.6018 66.2066 15.5973 66.1407C15.528 65.0326 14.9671 55.6594 15.6533 51.2479C15.6533 51.2479 9.98488 63.0421 9.12622 66.2936C9.10488 66.3727 9.03199 66.4263 8.94933 66.4219C8.70666 66.4096 8.20177 66.3657 7.80088 66.2198C7.65688 66.168 7.5751 66.0186 7.61155 65.8709C8.09155 63.9244 11.456 50.5159 13.7395 47.5614L19.2871 48.3672Z" fill="#40649D"/>
<path d="M15.6542 51.3226C15.6355 51.3226 15.6168 51.3156 15.6017 51.3015C15.5724 51.2734 15.5715 51.2268 15.6008 51.1978L16.36 50.4306C16.3884 50.4016 16.4355 50.4008 16.4648 50.4298C16.4942 50.4579 16.4951 50.5045 16.4657 50.5335L15.7066 51.3006C15.6924 51.3147 15.6728 51.3226 15.6542 51.3226Z" fill="url(#paint33_linear_4456_21752)"/>
<path d="M22.5271 33.9754C21.0711 33.5984 18.3857 33.0079 16.2471 33.1336C15.7564 33.1626 15.3626 33.5466 15.3351 34.0317C15.0124 39.6612 14.5706 44.6562 13.7395 47.5633C15.6079 48.2944 17.4595 48.6327 19.2871 48.3673C20.6559 45.4691 21.8524 42.1227 22.8755 38.3219C22.8755 38.3219 23.4755 35.291 22.8933 34.2804C22.8017 34.124 22.6826 34.0159 22.5271 33.9754Z" fill="#174389"/>
<path d="M19.0257 30.0322C19.0257 30.0322 18.6577 32.2011 18.5484 33.2038C18.5306 33.3664 18.6168 33.521 18.7644 33.5957C19.1662 33.8005 20.0239 34.13 20.9591 33.8277C21.1128 33.7776 21.2142 33.6309 21.2106 33.4709L21.1466 30.5762L19.0257 30.0322Z" fill="url(#paint34_linear_4456_21752)"/>
<path d="M21.423 27.6296C21.423 27.6296 22.1324 29.2405 22.1804 30.0859C22.2284 30.9312 22.4124 31.4805 21.423 31.6501C20.4337 31.8206 19.6008 31.3337 19.1493 30.491C19.1493 30.491 18.4417 29.193 18.6008 28.6613C18.7599 28.1305 21.423 27.6296 21.423 27.6296Z" fill="url(#paint35_linear_4456_21752)"/>
<path d="M19.488 29.8855H19.6133C19.6133 29.8855 19.0977 28.8406 19.5511 28.6578C20.0035 28.4742 21.7964 28.113 22.1831 27.4838C22.5564 26.8774 22.2231 26.0944 21.7262 25.8747C21.6951 25.8607 21.6577 25.8756 21.6417 25.9055L21.6008 25.9828C21.5724 26.0355 21.4942 26.0276 21.4773 25.9705C21.4613 25.916 21.3875 25.9046 21.3573 25.9521C21.2391 26.1401 20.9182 26.4459 20.0586 26.6032C18.8382 26.8256 18.032 27.3142 18.0115 28.1481C18.0106 28.2009 17.9528 28.2299 17.9075 28.2026C17.8177 28.1481 17.6728 28.1227 17.4808 28.2835C17.1457 28.5621 17.2826 29.2844 18.0177 29.8785C18.0524 29.9066 18.0524 29.9602 18.0142 29.9848C17.8808 30.0709 17.6826 30.2748 18.1973 30.5464C18.7235 30.8241 19.0346 30.7942 19.152 30.7643C19.184 30.7564 19.2044 30.7274 19.2026 30.6958L19.1564 29.9567C19.1537 29.9189 19.1848 29.8864 19.2231 29.8864H19.488V29.8855Z" fill="url(#paint36_linear_4456_21752)"/>
<path d="M19.5182 30.0402C19.5182 30.0402 19.2479 29.0111 18.7813 29.2994C18.3146 29.5876 19.023 30.4523 19.399 30.491L19.5182 30.0402Z" fill="url(#paint37_linear_4456_21752)"/>
<path d="M4.37508 46.7837L3.41686 47.0227C1.7733 47.4331 0.667523 48.6546 0.947523 49.7505L1.28086 51.0537C1.56086 52.1496 3.12086 52.7049 4.76441 52.2937L5.72263 52.0546C5.78575 52.0388 5.84886 52.0212 5.91197 52.0028L34.0044 43.693L33.2791 40.8545L4.56708 46.7397C4.50308 46.7529 4.43908 46.7679 4.37508 46.7837ZM4.78841 48.0834C6.02574 47.7741 7.18041 48.1124 7.36619 48.84C7.55197 49.5668 6.69952 50.4069 5.4613 50.7162C4.22397 51.0256 3.0693 50.6872 2.88352 49.9596C2.69775 49.2329 3.55019 48.3927 4.78841 48.0834Z" fill="url(#paint38_linear_4456_21752)"/>
<path d="M42.6195 36.9984L37.0604 38.3877C36.6649 38.487 36.3377 38.7612 36.1751 39.1321L35.3431 41.0302C35.1057 41.5725 35.2675 42.2043 35.7369 42.569L37.3813 43.8485C37.7022 44.0981 38.1218 44.1869 38.5173 44.0876L44.0764 42.6982C44.9146 42.489 45.6275 43.3538 45.2311 44.1139C44.2844 45.9321 42.5466 47.3707 40.3342 47.9235C36.3369 48.9226 32.7982 46.5279 31.8266 42.7263C30.8551 38.9247 32.8169 35.1556 36.8142 34.1564C39.0257 33.6036 41.2462 34.0527 42.9537 35.2083C43.6684 35.6925 43.4577 36.7883 42.6195 36.9984Z" fill="url(#paint39_linear_4456_21752)"/>
<path d="M42.752 37.5159L37.1929 38.9053C36.7973 39.0046 36.4702 39.2788 36.3075 39.6496L35.4755 41.5478C35.2382 42.09 35.4 42.7219 35.8693 43.0866L37.5138 44.3661C37.8346 44.6157 38.2542 44.7044 38.6498 44.6051L44.2089 43.2157C45.0471 43.0066 45.76 43.8713 45.3635 44.6315C44.4169 46.4497 42.6791 47.8883 40.4666 48.441C36.4693 49.4402 32.9306 47.0455 31.9591 43.2439C30.9875 39.4422 32.9493 35.6731 36.9466 34.6748C39.1582 34.122 41.3786 34.5711 43.0862 35.7267C43.8009 36.2109 43.5902 37.3068 42.752 37.5159Z" fill="#BDD0FB"/>
<path d="M4.48085 47.1968L3.52263 47.4358C1.87908 47.8462 0.773297 49.0677 1.0533 50.1635L1.38663 51.4668C1.66663 52.5626 3.22663 53.118 4.87018 52.7068L5.82841 52.4677C5.89152 52.4519 5.95463 52.4343 6.01774 52.4159L34.1102 44.1061L33.3849 41.2676L4.67285 47.1528C4.60796 47.166 4.54485 47.1809 4.48085 47.1968ZM4.8933 48.4965C6.13063 48.1872 7.2853 48.5255 7.47107 49.2531C7.65685 49.9799 6.80441 50.82 5.56618 51.1293C4.32885 51.4387 3.17419 51.1003 2.98841 50.3727C2.80352 49.6459 3.65596 48.8058 4.8933 48.4965Z" fill="#BDD0FB"/>
<path d="M11.5679 41.4723C10.8479 43.4698 11.2533 45.6105 11.2533 45.6105L10.3039 45.8609C10.3039 45.8609 9.07817 44.4188 9.35817 41.22C10.2346 41.0882 11.0551 41.2912 11.5679 41.4723Z" fill="url(#paint40_linear_4456_21752)"/>
<path d="M9.3587 41.2201C9.38981 40.8606 9.43959 40.4792 9.51337 40.075C10.1543 36.5467 14.7303 33.8321 15.8067 33.238C15.9071 33.1827 16.0289 33.2574 16.0254 33.3707L15.8725 38.1672C13.324 38.5055 12.1178 39.9476 11.5685 41.4723C11.0547 41.2912 10.2343 41.0882 9.3587 41.2201Z" fill="#174389"/>
<path d="M28.8027 45.9321C28.9804 45.8838 29.1253 45.7581 29.2 45.5921C29.3458 45.2695 29.5102 44.7519 29.1591 44.5946C28.6373 44.36 27.688 45.3214 27.688 45.3214L27.224 46.0648L26.8 46.2687C27.1893 46.3742 27.9378 46.1984 28.8027 45.9321Z" fill="url(#paint41_linear_4456_21752)"/>
<path d="M11.1902 45.1421H12.3635C12.3635 45.1421 11.4115 45.7063 11.3804 46.3003C11.3484 46.8935 11.7582 48.1229 11.9502 48.4578C12.16 48.8242 9.29329 47.9129 10.3048 45.1421H11.1902Z" fill="url(#paint42_linear_4456_21752)"/>
<path d="M159.172 33.1091L159.187 33.5423C160.534 35.3974 161.76 34.9238 162.604 34.3675C162.096 33.1179 162.006 32.9799 161.601 32.5458C160.076 33.6416 159.172 33.1091 159.172 33.1091Z" fill="url(#paint43_linear_4456_21752)"/>
<path d="M165.315 31.0738L162.943 27.4075C162.788 29.4753 162.417 31.4121 161.601 32.5457C162.006 32.9799 162.097 33.1178 162.604 34.3675C164.711 32.9781 165.315 31.0738 165.315 31.0738Z" fill="#174389"/>
<path d="M167.643 61.8384C166.46 61.892 165.316 61.8586 164.551 61.8199C165.247 61.3304 166.85 60.2653 168.191 59.8409L169.112 59.7864C169.112 59.7864 169.424 60.2556 169.535 61.3286C169.383 61.5176 168.937 61.7795 167.643 61.8384Z" fill="url(#paint44_linear_4456_21752)"/>
<path d="M164.542 61.8269C164.545 61.8251 164.548 61.8225 164.552 61.8199C165.316 61.8585 166.46 61.8928 167.644 61.8383C168.938 61.7794 169.384 61.5167 169.537 61.3286C169.542 61.3778 169.548 61.427 169.551 61.4789C169.571 61.7144 169.394 61.9209 169.155 61.9394C168.187 62.0114 165.785 62.1758 164.628 62.116C164.474 62.1081 164.418 61.9148 164.542 61.8269Z" fill="url(#paint45_linear_4456_21752)"/>
<path d="M176.1 61.5255C176.186 60.9772 176.325 60.1836 176.432 59.9806C176.6 59.6625 177.177 59.9806 177.177 59.9806C177.177 59.9806 177.581 60.1669 177.767 60.478C177.885 60.6757 178.214 61.2399 178.436 61.6222C178.462 61.6661 178.473 61.7127 178.471 61.7584L176.164 61.8384C176.108 61.7496 176.082 61.6398 176.1 61.5255Z" fill="url(#paint46_linear_4456_21752)"/>
<path d="M178.472 61.7593C178.468 61.8893 178.364 62.008 178.216 62.0115L176.572 62.0563C176.399 62.0607 176.248 61.9719 176.164 61.8392L178.472 61.7593Z" fill="url(#paint47_linear_4456_21752)"/>
<path d="M175.924 58.1571C175.943 58.223 176.242 59.6519 176.372 60.2785C176.409 60.4516 176.566 60.5737 176.745 60.5649C176.843 60.5606 176.956 60.5518 177.076 60.536C177.287 60.5087 177.448 60.3347 177.456 60.1238C177.477 59.5746 177.488 58.52 177.284 58.1114C177.002 57.5472 175.924 58.1571 175.924 58.1571Z" fill="url(#paint48_linear_4456_21752)"/>
<path d="M169.293 58.5657C169.165 58.5613 169.344 59.2186 169.151 59.8637C169.108 60.0095 168.997 60.1238 168.844 60.1255C168.744 60.1264 168.626 60.1247 168.507 60.115C168.326 60.1009 168.182 59.963 168.165 59.7846L168.008 58.1105L169.293 58.5657Z" fill="url(#paint49_linear_4456_21752)"/>
<path d="M165.717 40.7693C165.774 41.0444 167.788 52.6602 167.911 58.6702C167.913 58.7713 167.988 58.8557 168.089 58.8697C168.345 58.9049 168.843 58.9506 169.325 58.8618C169.391 58.8495 169.441 58.7959 169.445 58.7291C169.516 57.6087 170.082 48.1388 169.388 43.6807C169.388 43.6807 175.116 55.598 175.984 58.8838C176.005 58.9637 176.079 59.0174 176.163 59.013C176.408 58.9998 176.918 58.9567 177.324 58.8091C177.468 58.7563 177.551 58.6052 177.515 58.4567C177.029 56.49 173.63 42.9408 171.322 39.9556L165.717 40.7693Z" fill="#40649D"/>
<path d="M169.388 43.7555C169.407 43.7555 169.427 43.7485 169.441 43.7344C169.47 43.7054 169.471 43.6588 169.442 43.629L168.675 42.8539C168.645 42.8249 168.598 42.824 168.568 42.853C168.539 42.882 168.538 42.9286 168.567 42.9584L169.334 43.7335C169.349 43.7476 169.369 43.7555 169.388 43.7555Z" fill="#7D97F4"/>
<path d="M162.443 26.2272C163.914 25.8458 166.628 25.2438 168.788 25.3765C169.493 25.4205 169.627 26.0769 169.655 26.5673C169.981 32.2557 170.482 37.0196 171.322 39.9565C169.434 40.6947 167.563 41.0374 165.716 40.7694C164.333 37.8404 163.124 34.4597 162.091 30.6194C162.091 30.6194 161.484 27.5568 162.073 26.5357C162.165 26.3766 162.286 26.2676 162.443 26.2272Z" fill="#174389"/>
<path d="M165.981 22.2419C165.981 22.2419 166.353 24.4328 166.464 25.446C166.482 25.6103 166.395 25.7668 166.246 25.8423C165.84 26.0489 164.973 26.3819 164.029 26.0761C163.874 26.026 163.771 25.8766 163.775 25.7149L163.84 22.7894L165.981 22.2419Z" fill="url(#paint50_linear_4456_21752)"/>
<path d="M157.049 10.6902C157.101 10.6612 157.12 10.5953 157.091 10.5425L156.94 10.278L156.928 10.2842L156.041 8.86054C156.009 8.80957 155.941 8.79375 155.891 8.82539L155.723 8.92821C155.671 8.95984 155.655 9.02663 155.687 9.07672L156.507 10.3905C156.54 10.4424 156.522 10.5118 156.468 10.5417L150.028 14.1315C149.976 14.1605 149.957 14.2264 149.987 14.2791L150.138 14.5437L150.14 14.5428L152.232 18.2108C152.261 18.2627 152.328 18.2811 152.381 18.2521L152.553 18.1564C152.605 18.1274 152.624 18.0615 152.595 18.0087L150.556 14.4347C150.527 14.3828 150.546 14.3169 150.598 14.2871L157.049 10.6902Z" fill="url(#paint51_linear_4456_21752)"/>
<path d="M154.42 5.7655L156.131 8.76569L142.786 16.2064L141.074 13.2062L154.42 5.7655Z" fill="#174389"/>
<path d="M165.99 43.6923L165.147 44.1141C165.081 44.1466 165.001 44.1211 164.968 44.0561L151.649 18.044C151.616 17.9789 151.642 17.8998 151.708 17.8673L152.551 17.4455C152.617 17.413 152.697 17.4385 152.73 17.5035L166.049 43.5156C166.082 43.5807 166.056 43.6597 165.99 43.6923Z" fill="url(#paint52_linear_4456_21752)"/>
<path d="M142.491 14.3785C142.967 15.2133 143.099 16.0315 142.786 16.2064C142.473 16.3812 141.833 15.8461 141.356 15.0112C140.88 14.1764 140.748 13.3582 141.061 13.1833C141.374 13.0093 142.014 13.5445 142.491 14.3785Z" fill="#174389"/>
<path d="M155.748 7.00195C156.225 7.8368 156.356 8.65495 156.044 8.82982C155.731 9.0047 155.091 8.46952 154.614 7.63468C154.138 6.79983 154.006 5.98167 154.319 5.80679C154.632 5.63192 155.272 6.1671 155.748 7.00195Z" fill="#4267B3"/>
<path d="M158.956 33.1758C158.863 33.0361 158.84 32.863 158.89 32.703C158.987 32.3928 159.189 31.9376 159.528 32.0378C160.032 32.1881 160.1 33.4201 160.1 33.4201L159.965 34.211L160.133 34.6056C159.801 34.4457 159.391 33.8762 158.956 33.1758Z" fill="url(#paint53_linear_4456_21752)"/>
<path d="M170.632 35.9588C170.838 35.6732 171.044 35.3604 171.249 35.015C173.267 31.5983 169.566 26.3651 169.566 26.3651L168.438 29.6843C170.106 31.5227 169.405 33.297 168.838 34.769C168.095 36.6961 164.883 38.3298 164.883 38.3298L165.495 39.0759C165.494 39.0768 168.796 38.502 170.632 35.9588Z" fill="url(#paint54_linear_4456_21752)"/>
<path d="M171.9 31.5825C171.859 28.9295 169.727 26.1112 169.338 25.6155C169.31 25.5804 169.255 25.5874 169.236 25.6278L168.437 29.6852C168.777 30.4691 168.707 30.9621 169.046 31.6686C169.963 31.5421 170.813 31.5351 171.718 31.7293C171.813 31.7486 171.901 31.6783 171.9 31.5825Z" fill="#174389"/>
<path d="M164.883 38.3299C164.695 38.2359 163.225 38.4476 163.45 38.648C163.845 38.9986 163.862 39.264 163.446 39.5918C163.241 39.7535 162.77 39.9996 162.641 39.6217C162.604 39.5154 162.6 39.3774 162.498 39.3291C162.422 39.293 162.208 39.5496 162.195 39.6314C162.124 40.0919 162.496 40.475 162.906 40.627C163.105 40.7009 163.316 40.7325 163.526 40.7641C163.643 40.7817 163.934 40.8239 163.961 40.8133C163.991 40.8002 164.01 40.7694 164.032 40.7457C164.128 40.6402 164.641 40.214 164.752 40.0708C164.812 39.9934 165.58 39.0356 165.541 38.9442C165.541 38.9433 165.041 38.4099 164.883 38.3299Z" fill="url(#paint55_linear_4456_21752)"/>
<path d="M163.41 19.9078C163.41 19.9078 162.222 22.1189 162.374 23.0117C162.526 23.9046 163.999 23.8404 165.284 23.1154L166.183 20.7286L163.41 19.9078Z" fill="url(#paint56_linear_4456_21752)"/>
<path d="M165.227 21.9431C165.174 21.9202 165.155 21.857 165.187 21.8095C165.282 21.6654 165.46 21.3728 165.517 21.1162C165.517 21.1162 165.731 20.9808 164.974 20.8015C164.217 20.6223 163.088 20.3446 162.851 19.7075C162.619 19.0862 163.227 17.5245 164.197 18.7689C164.235 18.8164 164.307 18.8172 164.343 18.7698C164.502 18.565 164.92 18.1406 165.5 18.3981C166.043 18.6389 166.105 19.0325 166.097 19.2312C166.095 19.2892 166.147 19.3349 166.205 19.3243C166.48 19.2725 167.139 19.2276 167.446 19.8964C167.699 20.4465 167.535 20.7585 167.385 20.9105C167.336 20.9597 167.357 21.0415 167.424 21.0617C167.604 21.1162 167.837 21.2673 167.814 21.6856C167.782 22.2639 167.129 22.2129 166.942 22.1865C166.912 22.1821 166.881 22.1927 166.86 22.2155C166.701 22.3904 165.982 23.1312 165.204 23.2209C165.137 23.2288 165.085 23.1629 165.107 23.0996L165.443 22.132C165.459 22.0872 165.437 22.038 165.394 22.0187L165.227 21.9431Z" fill="url(#paint57_linear_4456_21752)"/>
<path d="M165.092 22.0802C165.092 22.0802 165.938 21.5063 165.999 21.9896C166.061 22.473 165.237 22.6892 164.829 22.509L165.092 22.0802Z" fill="url(#paint58_linear_4456_21752)"/>
<path d="M169.406 106.201C166.187 107.265 163.058 107.265 160.041 106.293C159.278 106.047 158.762 105.345 158.762 104.552V89.9436C162.469 90.7503 166.356 90.7916 170.449 89.9436V104.778C170.449 105.425 170.027 105.996 169.406 106.201Z" fill="#BDD0FB"/>
<path d="M164.605 90.9876C167.833 90.9876 170.449 90.4679 170.449 89.8268C170.449 89.1856 167.833 88.6659 164.605 88.6659C161.378 88.6659 158.762 89.1856 158.762 89.8268C158.762 90.4679 161.378 90.9876 164.605 90.9876Z" fill="#7D97F4"/>
<path d="M170.449 101.192C166.553 102.531 162.658 102.531 158.762 101.192V95.364C162.692 96.3219 166.59 96.3711 170.449 95.364V101.192Z" fill="#174389"/>
<path d="M159.388 91.2715C159.514 91.7337 160.047 92.0457 160.517 91.9314C160.847 91.8515 161.129 91.5957 161.468 91.5905C161.854 91.5843 162.162 91.898 162.387 92.2082C162.795 92.7707 163.106 93.4025 163.3 94.0678C163.365 94.2892 163.423 94.5247 163.58 94.6943C163.917 95.059 164.554 94.9422 164.928 94.6152C165.302 94.2883 165.506 93.8164 165.784 93.4069C166.062 92.9965 166.489 92.6142 166.988 92.6441C167.155 92.6538 167.316 92.7109 167.484 92.7171C167.853 92.7329 168.217 92.4736 168.319 92.1221C168.35 92.014 168.36 91.898 168.417 91.8005C168.586 91.5087 169.032 91.4806 169.263 91.2433C169.41 91.0931 169.459 90.8751 169.629 90.7275C169.694 90.6712 170.137 90.4902 170.147 90.463C170.225 90.2275 169.977 90.0148 169.748 89.9137C168.404 89.3223 166.868 89.912 165.412 90.1132C163.98 90.3109 162.612 89.9884 161.194 90.0007C160.412 90.0086 159.097 90.1941 159.388 91.2715Z" fill="#174389"/>
<path opacity="0.2" d="M164.673 91.021C167.9 91.021 170.516 90.5012 170.516 89.8601C170.516 89.219 167.9 88.6992 164.673 88.6992C161.446 88.6992 158.829 89.219 158.829 89.8601C158.829 90.5012 161.446 91.021 164.673 91.021Z" fill="white"/>
<path d="M164.517 90.5623C167.174 90.5623 169.328 90.2479 169.328 89.8601C169.328 89.4723 167.174 89.158 164.517 89.158C161.86 89.158 159.707 89.4723 159.707 89.8601C159.707 90.2479 161.86 90.5623 164.517 90.5623Z" fill="url(#paint59_linear_4456_21752)"/>
<defs>
<linearGradient id="paint0_linear_4456_21752" x1="8.40637" y1="73.9416" x2="31.2774" y2="73.9416" gradientUnits="userSpaceOnUse">
<stop stop-color="#DAE3FE"/>
<stop offset="1" stop-color="#E9EFFD"/>
</linearGradient>
<linearGradient id="paint1_linear_4456_21752" x1="8.7091" y1="76.4087" x2="28.8499" y2="76.4087" gradientUnits="userSpaceOnUse">
<stop stop-color="#DAE3FE"/>
<stop offset="1" stop-color="#E9EFFD"/>
</linearGradient>
<linearGradient id="paint2_linear_4456_21752" x1="3.47048" y1="89.0821" x2="32.9869" y2="89.0821" gradientUnits="userSpaceOnUse">
<stop stop-color="#DAE3FE"/>
<stop offset="1" stop-color="#E9EFFD"/>
</linearGradient>
<linearGradient id="paint3_linear_4456_21752" x1="4.09137" y1="82.1317" x2="32.6531" y2="82.1317" gradientUnits="userSpaceOnUse">
<stop stop-color="#DAE3FE"/>
<stop offset="1" stop-color="#E9EFFD"/>
</linearGradient>
<linearGradient id="paint4_linear_4456_21752" x1="127.153" y1="8.88954" x2="115.172" y2="25.4881" gradientUnits="userSpaceOnUse">
<stop stop-color="#DAE3FE"/>
<stop offset="1" stop-color="#E9EFFD"/>
</linearGradient>
<linearGradient id="paint5_linear_4456_21752" x1="54.1207" y1="65.8612" x2="74.4691" y2="65.8612" gradientUnits="userSpaceOnUse">
<stop stop-color="#DAE3FE"/>
<stop offset="1" stop-color="#E9EFFD"/>
</linearGradient>
<linearGradient id="paint6_linear_4456_21752" x1="52.4287" y1="58.8384" x2="57.8425" y2="58.8384" gradientUnits="userSpaceOnUse">
<stop stop-color="#DAE3FE"/>
<stop offset="1" stop-color="#E9EFFD"/>
</linearGradient>
<linearGradient id="paint7_linear_4456_21752" x1="36.831" y1="38.6036" x2="37.5602" y2="38.6036" gradientUnits="userSpaceOnUse">
<stop stop-color="#FE7062"/>
<stop offset="1" stop-color="#FF928E"/>
</linearGradient>
<linearGradient id="paint8_linear_4456_21752" x1="111.423" y1="116.59" x2="113.277" y2="105.803" gradientUnits="userSpaceOnUse">
<stop stop-color="#4042E2"/>
<stop offset="1" stop-color="#4F52FF"/>
</linearGradient>
<linearGradient id="paint9_linear_4456_21752" x1="110.38" y1="107.854" x2="115.09" y2="107.854" gradientUnits="userSpaceOnUse">
<stop stop-color="#09005D"/>
<stop offset="1" stop-color="#1A0F91"/>
</linearGradient>
<linearGradient id="paint10_linear_4456_21752" x1="110.827" y1="106.543" x2="112.192" y2="106.543" gradientUnits="userSpaceOnUse">
<stop stop-color="#FF928E"/>
<stop offset="1" stop-color="#FEB3B1"/>
</linearGradient>
<linearGradient id="paint11_linear_4456_21752" x1="100.564" y1="114.723" x2="102.419" y2="103.936" gradientUnits="userSpaceOnUse">
<stop stop-color="#4042E2"/>
<stop offset="1" stop-color="#4F52FF"/>
</linearGradient>
<linearGradient id="paint12_linear_4456_21752" x1="100.731" y1="107.276" x2="103.457" y2="107.276" gradientUnits="userSpaceOnUse">
<stop stop-color="#09005D"/>
<stop offset="1" stop-color="#1A0F91"/>
</linearGradient>
<linearGradient id="paint13_linear_4456_21752" x1="102.148" y1="105.417" x2="103.78" y2="105.417" gradientUnits="userSpaceOnUse">
<stop stop-color="#FF928E"/>
<stop offset="1" stop-color="#FEB3B1"/>
</linearGradient>
<linearGradient id="paint14_linear_4456_21752" x1="128.125" y1="77.2939" x2="118.089" y2="85.8429" gradientUnits="userSpaceOnUse">
<stop stop-color="#4042E2"/>
<stop offset="1" stop-color="#4F52FF"/>
</linearGradient>
<linearGradient id="paint15_linear_4456_21752" x1="109.623" y1="81.9054" x2="103.873" y2="87.0554" gradientUnits="userSpaceOnUse">
<stop stop-color="#FF928E"/>
<stop offset="1" stop-color="#FEB3B1"/>
</linearGradient>
<linearGradient id="paint16_linear_4456_21752" x1="120.511" y1="82.3865" x2="125.085" y2="82.3865" gradientUnits="userSpaceOnUse">
<stop stop-color="#FF928E"/>
<stop offset="1" stop-color="#FEB3B1"/>
</linearGradient>
<linearGradient id="paint17_linear_4456_21752" x1="116.065" y1="70.3017" x2="116.016" y2="78.7465" gradientUnits="userSpaceOnUse">
<stop stop-color="#FF928E"/>
<stop offset="1" stop-color="#FEB3B1"/>
</linearGradient>
<linearGradient id="paint18_linear_4456_21752" x1="129.869" y1="75.5957" x2="105.241" y2="91.9348" gradientUnits="userSpaceOnUse">
<stop stop-color="#09005D"/>
<stop offset="1" stop-color="#1A0F91"/>
</linearGradient>
<linearGradient id="paint19_linear_4456_21752" x1="125.986" y1="75.1987" x2="147.972" y2="75.1987" gradientUnits="userSpaceOnUse">
<stop stop-color="#DAE3FE"/>
<stop offset="1" stop-color="#E9EFFD"/>
</linearGradient>
<linearGradient id="paint20_linear_4456_21752" x1="124.746" y1="75.1988" x2="149.211" y2="75.1988" gradientUnits="userSpaceOnUse">
<stop stop-color="#09005D"/>
<stop offset="1" stop-color="#1A0F91"/>
</linearGradient>
<linearGradient id="paint21_linear_4456_21752" x1="118.837" y1="68.9131" x2="115.528" y2="74.9813" gradientUnits="userSpaceOnUse">
<stop stop-color="#FF928E"/>
<stop offset="1" stop-color="#FEB3B1"/>
</linearGradient>
<linearGradient id="paint22_linear_4456_21752" x1="115.85" y1="70.6793" x2="120.818" y2="69.9542" gradientUnits="userSpaceOnUse">
<stop stop-color="#09005D"/>
<stop offset="1" stop-color="#1A0F91"/>
</linearGradient>
<linearGradient id="paint23_linear_4456_21752" x1="113.371" y1="74.0926" x2="116.172" y2="70.2005" gradientUnits="userSpaceOnUse">
<stop stop-color="#FF928E"/>
<stop offset="1" stop-color="#FEB3B1"/>
</linearGradient>
<linearGradient id="paint24_linear_4456_21752" x1="111.917" y1="84.4662" x2="106.167" y2="89.6162" gradientUnits="userSpaceOnUse">
<stop stop-color="#FF928E"/>
<stop offset="1" stop-color="#FEB3B1"/>
</linearGradient>
<linearGradient id="paint25_linear_4456_21752" x1="127.604" y1="71.3529" x2="126.503" y2="76.8648" gradientUnits="userSpaceOnUse">
<stop stop-color="#FF928E"/>
<stop offset="1" stop-color="#FEB3B1"/>
</linearGradient>
<linearGradient id="paint26_linear_4456_21752" x1="29.8866" y1="37.7978" x2="26.6399" y2="41.5255" gradientUnits="userSpaceOnUse">
<stop stop-color="#FF928E"/>
<stop offset="1" stop-color="#FEB3B1"/>
</linearGradient>
<linearGradient id="paint27_linear_4456_21752" x1="15.4923" y1="68.2169" x2="20.5177" y2="68.2169" gradientUnits="userSpaceOnUse">
<stop stop-color="#09005D"/>
<stop offset="1" stop-color="#1A0F91"/>
</linearGradient>
<linearGradient id="paint28_linear_4456_21752" x1="18.005" y1="58.1469" x2="18.005" y2="68.4308" gradientUnits="userSpaceOnUse">
<stop stop-color="#53D8FF"/>
<stop offset="1" stop-color="#3840F7"/>
</linearGradient>
<linearGradient id="paint29_linear_4456_21752" x1="6.6644" y1="68.2293" x2="9.01744" y2="68.2293" gradientUnits="userSpaceOnUse">
<stop stop-color="#09005D"/>
<stop offset="1" stop-color="#1A0F91"/>
</linearGradient>
<linearGradient id="paint30_linear_4456_21752" x1="6.97647" y1="60.5696" x2="8.01057" y2="71.5527" gradientUnits="userSpaceOnUse">
<stop stop-color="#53D8FF"/>
<stop offset="1" stop-color="#3840F7"/>
</linearGradient>
<linearGradient id="paint31_linear_4456_21752" x1="7.65962" y1="66.6256" x2="9.18636" y2="66.6256" gradientUnits="userSpaceOnUse">
<stop stop-color="#FF928E"/>
<stop offset="1" stop-color="#FEB3B1"/>
</linearGradient>
<linearGradient id="paint32_linear_4456_21752" x1="15.7479" y1="66.5268" x2="17.0204" y2="66.5268" gradientUnits="userSpaceOnUse">
<stop stop-color="#FF928E"/>
<stop offset="1" stop-color="#FEB3B1"/>
</linearGradient>
<linearGradient id="paint33_linear_4456_21752" x1="18.9122" y1="47.1854" x2="13.7783" y2="53.8991" gradientUnits="userSpaceOnUse">
<stop stop-color="#09005D"/>
<stop offset="1" stop-color="#1A0F91"/>
</linearGradient>
<linearGradient id="paint34_linear_4456_21752" x1="21.1117" y1="28.17" x2="18.7188" y2="37.0596" gradientUnits="userSpaceOnUse">
<stop stop-color="#FF928E"/>
<stop offset="1" stop-color="#FEB3B1"/>
</linearGradient>
<linearGradient id="paint35_linear_4456_21752" x1="-27.883" y1="-172.136" x2="-26.1433" y2="-164.701" gradientUnits="userSpaceOnUse">
<stop stop-color="#FF928E"/>
<stop offset="1" stop-color="#FEB3B1"/>
</linearGradient>
<linearGradient id="paint36_linear_4456_21752" x1="18.723" y1="26.6259" x2="22.3428" y2="31.34" gradientUnits="userSpaceOnUse">
<stop stop-color="#09005D"/>
<stop offset="1" stop-color="#1A0F91"/>
</linearGradient>
<linearGradient id="paint37_linear_4456_21752" x1="-29.2069" y1="-171.827" x2="-27.4672" y2="-164.392" gradientUnits="userSpaceOnUse">
<stop stop-color="#FF928E"/>
<stop offset="1" stop-color="#FEB3B1"/>
</linearGradient>
<linearGradient id="paint38_linear_4456_21752" x1="15.0452" y1="22.3865" x2="15.8707" y2="30.8686" gradientUnits="userSpaceOnUse">
<stop stop-color="#4042E2"/>
<stop offset="1" stop-color="#4F52FF"/>
</linearGradient>
<linearGradient id="paint39_linear_4456_21752" x1="36.2647" y1="20.3212" x2="37.0902" y2="28.8034" gradientUnits="userSpaceOnUse">
<stop stop-color="#4042E2"/>
<stop offset="1" stop-color="#4F52FF"/>
</linearGradient>
<linearGradient id="paint40_linear_4456_21752" x1="61.1943" y1="89.0065" x2="54.1571" y2="82.5113" gradientUnits="userSpaceOnUse">
<stop stop-color="#FF928E"/>
<stop offset="1" stop-color="#FEB3B1"/>
</linearGradient>
<linearGradient id="paint41_linear_4456_21752" x1="29.0436" y1="43.2038" x2="24.0822" y2="56.5024" gradientUnits="userSpaceOnUse">
<stop stop-color="#FF928E"/>
<stop offset="1" stop-color="#FEB3B1"/>
</linearGradient>
<linearGradient id="paint42_linear_4456_21752" x1="60.0368" y1="90.2605" x2="52.9997" y2="83.7652" gradientUnits="userSpaceOnUse">
<stop stop-color="#FF928E"/>
<stop offset="1" stop-color="#FEB3B1"/>
</linearGradient>
<linearGradient id="paint43_linear_4456_21752" x1="160.3" y1="32.3956" x2="164.528" y2="43.7271" gradientUnits="userSpaceOnUse">
<stop stop-color="#FF928E"/>
<stop offset="1" stop-color="#FEB3B1"/>
</linearGradient>
<linearGradient id="paint44_linear_4456_21752" x1="169.552" y1="60.8266" x2="164.474" y2="60.8266" gradientUnits="userSpaceOnUse">
<stop stop-color="#09005D"/>
<stop offset="1" stop-color="#1A0F91"/>
</linearGradient>
<linearGradient id="paint45_linear_4456_21752" x1="166.153" y1="37.6811" x2="166.558" y2="49.2815" gradientUnits="userSpaceOnUse">
<stop stop-color="#4042E2"/>
<stop offset="1" stop-color="#4F52FF"/>
</linearGradient>
<linearGradient id="paint46_linear_4456_21752" x1="178.472" y1="60.8391" x2="176.094" y2="60.8391" gradientUnits="userSpaceOnUse">
<stop stop-color="#09005D"/>
<stop offset="1" stop-color="#1A0F91"/>
</linearGradient>
<linearGradient id="paint47_linear_4456_21752" x1="176.443" y1="37.321" x2="176.848" y2="48.9216" gradientUnits="userSpaceOnUse">
<stop stop-color="#4042E2"/>
<stop offset="1" stop-color="#4F52FF"/>
</linearGradient>
<linearGradient id="paint48_linear_4456_21752" x1="177.466" y1="59.2185" x2="175.924" y2="59.2185" gradientUnits="userSpaceOnUse">
<stop stop-color="#FF928E"/>
<stop offset="1" stop-color="#FEB3B1"/>
</linearGradient>
<linearGradient id="paint49_linear_4456_21752" x1="169.293" y1="59.1187" x2="168.008" y2="59.1187" gradientUnits="userSpaceOnUse">
<stop stop-color="#FF928E"/>
<stop offset="1" stop-color="#FEB3B1"/>
</linearGradient>
<linearGradient id="paint50_linear_4456_21752" x1="164.516" y1="21.3475" x2="165.385" y2="27.5603" gradientUnits="userSpaceOnUse">
<stop stop-color="#FF928E"/>
<stop offset="1" stop-color="#FEB3B1"/>
</linearGradient>
<linearGradient id="paint51_linear_4456_21752" x1="162.65" y1="6.16423" x2="141.682" y2="24.7582" gradientUnits="userSpaceOnUse">
<stop stop-color="#09005D"/>
<stop offset="1" stop-color="#1A0F91"/>
</linearGradient>
<linearGradient id="paint52_linear_4456_21752" x1="169.223" y1="1.66542" x2="163.823" y2="17.1708" gradientUnits="userSpaceOnUse">
<stop stop-color="#09005D"/>
<stop offset="1" stop-color="#1A0F91"/>
</linearGradient>
<linearGradient id="paint53_linear_4456_21752" x1="160.459" y1="31.146" x2="155.937" y2="43.3714" gradientUnits="userSpaceOnUse">
<stop stop-color="#FF928E"/>
<stop offset="1" stop-color="#FEB3B1"/>
</linearGradient>
<linearGradient id="paint54_linear_4456_21752" x1="167.225" y1="25.2579" x2="167.804" y2="30.4735" gradientUnits="userSpaceOnUse">
<stop stop-color="#FF928E"/>
<stop offset="1" stop-color="#FEB3B1"/>
</linearGradient>
<linearGradient id="paint55_linear_4456_21752" x1="162.323" y1="25.8025" x2="162.903" y2="31.0181" gradientUnits="userSpaceOnUse">
<stop stop-color="#FF928E"/>
<stop offset="1" stop-color="#FEB3B1"/>
</linearGradient>
<linearGradient id="paint56_linear_4456_21752" x1="164.717" y1="18.5111" x2="164.137" y2="22.7896" gradientUnits="userSpaceOnUse">
<stop stop-color="#FF928E"/>
<stop offset="1" stop-color="#FEB3B1"/>
</linearGradient>
<linearGradient id="paint57_linear_4456_21752" x1="177.155" y1="5.14474" x2="170.145" y2="14.3616" gradientUnits="userSpaceOnUse">
<stop stop-color="#09005D"/>
<stop offset="1" stop-color="#1A0F91"/>
</linearGradient>
<linearGradient id="paint58_linear_4456_21752" x1="165.917" y1="18.6736" x2="165.338" y2="22.9522" gradientUnits="userSpaceOnUse">
<stop stop-color="#FF928E"/>
<stop offset="1" stop-color="#FEB3B1"/>
</linearGradient>
<linearGradient id="paint59_linear_4456_21752" x1="164.938" y1="87.8989" x2="164.037" y2="92.1954" gradientUnits="userSpaceOnUse">
<stop stop-color="#09005D"/>
<stop offset="1" stop-color="#1A0F91"/>
</linearGradient>
</defs>
</svg>
